<?xml version="1.0" encoding="UTF-8" standalone="no"?>
<!-- Created with Inkscape (http://www.inkscape.org/) -->

<svg
   version="1.1"
   id="svg2"
   width="666.66669"
   height="666.66669"
   viewBox="0 0 666.66669 666.66669"
   sodipodi:docname="2953739.eps"
   xmlns:inkscape="http://www.inkscape.org/namespaces/inkscape"
   xmlns:sodipodi="http://sodipodi.sourceforge.net/DTD/sodipodi-0.dtd"
   xmlns="http://www.w3.org/2000/svg"
   xmlns:svg="http://www.w3.org/2000/svg">
  <defs
     id="defs6" />
  <sodipodi:namedview
     id="namedview4"
     pagecolor="#ffffff"
     bordercolor="#000000"
     borderopacity="0.25"
     inkscape:showpageshadow="2"
     inkscape:pageopacity="0.0"
     inkscape:pagecheckerboard="0"
     inkscape:deskcolor="#d1d1d1" />
  <g
     id="g8"
     inkscape:groupmode="layer"
     inkscape:label="ink_ext_XXXXXX"
     transform="matrix(1.3333333,0,0,-1.3333333,0,666.66667)">
    <g
       id="g10"
       transform="scale(0.1)">
      <path
         d="m 2535.43,2465.02 c 18.65,-0.22 37.28,-0.91 55.92,-0.56 52.28,1.02 104.41,-5.33 156.74,-3.01 5.74,-1.25 7.64,-5.09 7.33,-10.58 -0.63,-10.88 -4.03,-21.1 -7.28,-31.38 -1.28,-4.06 -4.21,-5.59 -8.13,-5.71 -4.21,-0.14 -8.42,-0.18 -12.62,-0.18 -72.68,0 -145.36,0 -218.05,0 -3.61,0 -7.21,0.11 -10.81,0.05 -6.52,-0.08 -10.16,2.75 -10.13,9.6 0.05,10.21 0.16,20.42 -0.03,30.63 -0.14,7.76 3.69,10.61 11.05,10.6 12.01,-0.02 24.01,0.33 36.01,0.54"
         style="fill:#926bbc;fill-opacity:1;fill-rule:evenodd;stroke:none"
         id="path16" />
      <path
         d="m 1050.47,3640.22 c 19.11,-0.04 20.66,-1.48 21.38,-20.08 1.95,-50.37 5.37,-100.7 4.19,-151.18 -0.41,-17.78 0.03,-18.01 -17.18,-20.41 -47.73,-6.63 -95.79,-6.67 -143.805,-6.88 -22.813,-0.09 -45.586,0.78 -68.383,-1.46 -15.309,-1.51 -20.086,2.58 -19.832,17.99 0.875,52.8 -6.281,105.49 -1.527,158.33 1.64,18.23 3.226,20.33 21.636,20.31 34.219,-0.05 169.901,3.43 203.521,3.38"
         style="fill:#b62766;fill-opacity:1;fill-rule:evenodd;stroke:none"
         id="path18" />
      <path
         d="m 1016.32,3547.51 c -3.31,8.37 -1.86,14.93 -1.17,21.31 0.75,6.8 5.05,7.14 10.26,4.23 5.94,-3.32 8.25,-8.61 7.06,-15.01 -1.58,-8.5 -9.49,-7.35 -16.15,-10.53"
         style="fill:#bf3978;fill-opacity:1;fill-rule:evenodd;stroke:none"
         id="path26" />
      <path
         d="m 890.32,3575.81 c 10.426,-2.26 18.524,-2.94 17.883,-12.36 -0.367,-5.43 -7.012,-10.32 -11.801,-8.47 -10.308,3.98 -2.121,12.65 -6.082,20.83"
         style="fill:#c03d7c;fill-opacity:1;fill-rule:evenodd;stroke:none"
         id="path28" />
      <path
         d="m 948.648,4093.8 c 0,43.33 0.27,74.58 -0.113,105.82 -0.195,16.31 2.203,32.35 4.309,48.36 4.25,32.3 35.094,59.31 70.076,62.11 11.35,0.91 22.81,0.73 34.21,0.83 24.61,0.22 49.19,-0.55 73.78,2.17 28.2,3.12 56.3,-1.95 84.48,-2.72 44.95,-1.23 89.85,-4.42 134.8,-6.24 41.16,-1.67 56.25,-21.18 67.11,-60.45 3.2,-11.52 4.36,-23.59 4.27,-35.69 -0.12,-19.83 0.22,-39.67 0.1,-59.48 -0.32,-50.49 2.75,-100.84 5.82,-151.19 0.59,-9.59 0.67,-19.21 0.68,-28.82 0.03,-26 -8.84,-36.82 -38.31,-43.65 -12.15,-2.81 -25.06,-3.1 -37.64,-3.19 -51.06,-0.37 -102.2,-1.78 -153.19,0.15 -62.46,2.34 -124.9,0.91 -187.35,2.03 -12.035,0.21 -23.922,0.38 -34.489,7.84 -14.972,10.56 -24.089,23.5 -25.925,42.76 -4.172,43.81 -0.93,87.67 -2.618,119.36"
         style="fill:#f6853b;fill-opacity:1;fill-rule:evenodd;stroke:none"
         id="path30" />
      <path
         d="m 1320.86,4133.83 c 0.25,-4.46 -1.93,-8.04 -4.18,-11.63 -14.37,-23.02 -32.1,-43.44 -49.28,-64.29 -1.51,-1.84 -3.29,-3.55 -5.19,-4.97 -4.72,-3.51 -10.23,-4.88 -14.92,-0.92 -5.6,4.7 -4.38,11.38 -0.67,16.3 6.48,8.6 13.71,16.72 21.28,24.4 9.74,9.9 17.46,21.39 26.42,31.87 4.51,5.27 4.02,9.07 -1.09,13.52 -15.85,13.79 -31.53,27.78 -47.09,41.9 -4.42,4 -9.12,7.94 -11.67,13.56 -1.56,3.43 -1.95,7.03 1.16,9.94 2.51,2.36 5.61,1.97 8.38,0.68 4.33,-2.04 8.81,-4 12.67,-6.77 21.04,-15.06 40.83,-31.6 57.96,-51.14 3.22,-3.68 6.57,-7.08 6.22,-12.45"
         style="fill:#fcf1f9;fill-opacity:1;fill-rule:evenodd;stroke:none"
         id="path32" />
      <path
         d="m 1110.36,4179.34 c -0.53,-6.29 -4.6,-10.98 -8.52,-15.37 -12.04,-13.41 -24.48,-26.46 -36.8,-39.63 -8.43,-9.03 -8.77,-9.35 0.69,-18.09 11.9,-11.02 24.41,-21.36 36.59,-32.07 4.94,-4.36 10.09,-8.55 13.49,-14.41 2.36,-4.09 2.42,-8.03 -0.81,-11.61 -3.1,-3.45 -7.02,-4.69 -11.38,-2.7 -3.25,1.49 -6.6,3.09 -9.36,5.32 -19.16,15.45 -38.97,30.2 -55.73,48.4 -10.27,11.15 -11.06,20.23 -1.27,29.84 16.7,16.39 34.06,32.14 51.25,48.04 3.96,3.67 8.21,7.28 13.93,7.74 3.79,0.3 7.26,-0.57 7.92,-5.46"
         style="fill:#fcf1f9;fill-opacity:1;fill-rule:evenodd;stroke:none"
         id="path34" />
      <path
         d="m 1157.05,4194.77 c 4.2,-0.2 6.49,-3.17 8.04,-6.38 4.18,-8.62 8.56,-17.21 11.83,-26.2 11.68,-32.13 19.5,-65.57 32.5,-97.27 2.79,-6.76 3.68,-13.51 -4.27,-16.79 -7.81,-3.22 -12.49,2.17 -15.39,8.61 -4.17,9.29 -8.28,18.67 -11.6,28.3 -10.19,29.5 -18.55,59.53 -25.41,90 -1.07,4.74 -2.02,9.37 -1.42,14.22 0.42,3.33 2.04,5.51 5.72,5.51"
         style="fill:#fcf0f8;fill-opacity:1;fill-rule:evenodd;stroke:none"
         id="path36" />
      <path
         d="m 1857.48,4554.14 c -82.25,-2.27 -140.53,1.31 -198.8,-1.44 -2.39,-0.11 -4.83,-0.11 -7.2,0.19 -6.8,0.84 -10.9,4.68 -11.77,11.54 -0.86,6.8 1.97,11.76 8.34,14.3 3.3,1.31 6.86,2.7 10.33,2.81 19.8,0.61 39.44,4.39 59.37,2.42 7.15,-0.7 14.4,-0.66 21.61,-0.57 89.51,0.99 179.01,-0.1 268.5,-1.09 4.81,-0.05 9.69,0.18 14.39,-0.61 6.52,-1.11 10.77,-5.28 11.56,-12.05 0.82,-7.14 -3.48,-11.07 -9.45,-13.65 -5.74,-2.47 -11.83,-1.81 -17.8,-1.81 -57.68,-0.06 -115.36,-0.04 -149.08,-0.04"
         style="fill:#b62867;fill-opacity:1;fill-rule:evenodd;stroke:none"
         id="path38" />
      <path
         d="m 1960.82,4505.69 c 20.2,1.98 40.35,-2.64 60.73,-3.19 10.97,-0.29 16.78,-6.7 16.3,-15.2 -0.45,-7.74 -6.16,-12.48 -16.21,-13.36 -1.79,-0.17 -3.61,-0.12 -5.4,-0.05 -59.46,2.28 -118.75,-2.5 -178.06,-4.85 -44.4,-1.76 -88.77,-1.86 -133.14,-2.91 -8.73,-0.21 -16.57,1.16 -23.31,7.19 -7.11,6.34 -6.65,13.26 2.62,16.04 10.21,3.06 21.13,5.21 31.76,5.22 61.24,0.1 122.13,7.8 183.33,8.13 20.42,0.1 40.61,4.22 61.38,2.98"
         style="fill:#f6853c;fill-opacity:1;fill-rule:evenodd;stroke:none"
         id="path40" />
      <path
         d="m 1917.36,4387.87 c -43.81,-0.19 -87.55,-1.27 -131.27,-4.3 -8.35,-0.58 -16.84,-0.56 -25.15,0.34 -6.47,0.7 -10.78,5.33 -11.48,12.05 -0.72,6.86 3.16,11.15 9.13,13.95 4.53,2.11 9.33,1.8 14.11,2.14 76.68,5.43 153.44,4.5 230.21,3.11 10.7,-0.2 20.29,-1.62 27.5,-10.28 4.96,-5.96 3.82,-11.11 -3.6,-13.88 -6.78,-2.54 -14.02,-3.12 -21.26,-3.12 -29.4,-0.01 -58.79,-0.01 -88.19,-0.01"
         style="fill:#274f67;fill-opacity:1;fill-rule:evenodd;stroke:none"
         id="path42" />
      <path
         d="m 1087.95,3123.87 c 0.28,-10.8 0.76,-21.59 0.78,-32.39 0.07,-60.66 -0.04,-121.32 0.04,-181.98 0.05,-32.36 -5.21,-64.48 -3.8,-96.95 0.61,-13.92 -14.26,-28.54 -29.6,-28.29 -24.68,0.4 -48.88,-5.27 -73.538,-4.09 -46.207,2.21 -92.258,-3.05 -138.324,-4.72 -33.528,-1.23 -67.086,-1.05 -100.582,-2.63 -15.778,-0.74 -31.047,2.29 -46.41,4.39 -17.887,2.44 -27.196,13.16 -29.618,31.19 -0.164,1.18 -0.121,2.4 -0.195,3.59 -4.187,68.9 -4.035,137.89 -3.344,206.86 0.239,24.91 2.008,49.82 3.133,74.72 0.348,7.86 -0.308,15.58 -2.492,23.15 3.793,3.53 8.59,4.67 13.367,4.02 52.086,-7.07 104,2.88 156.028,1.43 41.269,-1.14 82.527,0.7 123.832,-3.07 43.593,-3.97 87.113,3.91 130.723,4.77"
         style="fill:#c29fd6;fill-opacity:1;fill-rule:evenodd;stroke:none"
         id="path44" />
      <path
         d="m 1087.95,3123.87 c -4.09,-5.72 -9.34,-8.41 -16.7,-8.53 -45.47,-0.73 -90.863,-3.07 -136.445,-1.23 -54.434,2.2 -108.969,1.15 -163.45,-0.22 -31.128,-0.78 -62.261,-1.31 -93.386,0.33 -4.809,0.25 -9.555,0.23 -13.969,2.5 -0.062,12.59 -1.133,25.26 0,37.73 2.508,27.68 16.891,42.97 44.352,48.9 30.078,6.49 60.675,7.99 91.226,7.37 65.973,-1.33 131.86,2.5 197.805,2.24 15.077,-0.05 29.937,-2.12 44.717,-4.12 25.09,-3.4 43.12,-22.47 46.85,-47.77 1.82,-12.41 4.4,-24.94 -1,-37.2"
         style="fill:#264f66;fill-opacity:1;fill-rule:evenodd;stroke:none"
         id="path46" />
      <path
         d="m 901.352,2864.85 c 1.336,-13.18 -3.832,-23.47 -13.817,-31.39 -9.512,-7.56 -18.347,-7.14 -27.344,0.72 -19.363,16.89 -15.914,54.09 6.2,67.07 8.621,5.05 24.925,-1.24 30.246,-12.29 3.636,-7.54 5.812,-15.66 4.715,-24.11"
         style="fill:#f5e3f3;fill-opacity:1;fill-rule:evenodd;stroke:none"
         id="path48" />
      <path
         d="m 937.465,3014.65 c 0.828,-10.31 -0.594,-21.93 -10.895,-30.68 -7.136,-6.06 -15.027,-9.48 -24.636,-9.1 -13.52,0.53 -21.512,7.1 -22.09,20.64 -0.688,16.18 -0.629,32.42 -0.18,48.62 0.356,12.91 5.031,17.04 17.672,17.48 23.703,0.84 40.066,-17.46 40.129,-46.96"
         style="fill:#fbf0f8;fill-opacity:1;fill-rule:evenodd;stroke:none"
         id="path50" />
      <path
         d="m 995.863,2971.47 c -29.984,-0.28 -29.613,-0.28 -29.972,29.06 -0.153,12.74 2.136,25.01 4.093,37.39 1.543,9.82 7.024,15.72 17.196,18.13 11.937,2.84 23.81,1.93 35.74,1.55 2.52,-0.08 4.74,-1.69 5.29,-4.15 0.54,-2.51 -1.03,-4.49 -3.31,-5.71 -4.27,-2.26 -8.7,-3.71 -13.61,-4.24 -6.51,-0.72 -12.923,-2.39 -19.411,-3.3 -8.68,-1.21 -7.738,-7.62 -7.785,-13.61 -0.051,-6.3 3.886,-8.05 9.32,-8.38 3.566,-0.21 7.376,-0.15 10.616,-1.42 4.01,-1.57 11.25,-0.21 10.71,-6.96 -0.43,-5.25 -6.49,-6.46 -10.9,-8.23 -5.438,-2.19 -10.563,0.2 -15.813,1.22 -3.242,0.64 -5.972,-0.53 -6.589,-4.23 -0.633,-3.85 0.015,-7.47 4.453,-8.38 3.472,-0.73 7.136,-0.57 10.718,-0.75 5.391,-0.28 10.941,0.22 16.111,-0.97 4.91,-1.14 11.53,-2.28 10.31,-9.86 -0.92,-5.8 -5.93,-6.98 -10.97,-7.13 -5.39,-0.15 -10.79,-0.03 -16.197,-0.03"
         style="fill:#faf0f9;fill-opacity:1;fill-rule:evenodd;stroke:none"
         id="path52" />
      <path
         d="m 857.906,3019.39 c -0.203,-17.99 -8.984,-32.5 -21.691,-37.87 -10.047,-4.23 -18.547,-2.38 -26.707,3.95 -20.582,15.96 -21.992,48.43 -2.899,66.46 10.52,9.93 29.879,8.78 40.114,-3.16 7.078,-8.25 11.984,-17.86 11.183,-29.38"
         style="fill:#faf0f9;fill-opacity:1;fill-rule:evenodd;stroke:none"
         id="path54" />
      <path
         d="m 1002,2867.47 c 1.14,-9.68 -2.141,-17.39 -6.504,-24.67 -8.289,-13.84 -21.414,-15.12 -32.57,-3.37 -12.328,12.97 -15.094,37.09 -5.5,51.93 4.719,7.31 10.992,12.26 20.75,11.75 9.75,-0.5 15.64,-6.11 19.308,-13.88 3.276,-6.96 6.096,-14.47 4.516,-21.76"
         style="fill:#f6e4f4;fill-opacity:1;fill-rule:evenodd;stroke:none"
         id="path56" />
      <path
         d="m 709.922,2866.59 c -1.508,14.19 0.762,26.7 12.426,35.98 5.324,4.25 10.632,5.14 16.492,1.4 21.117,-13.48 20.199,-53.02 7.371,-64.12 -5.969,-5.16 -12.023,-10.31 -20.781,-7.46 -9.692,3.17 -14.293,10.55 -15.41,20.18 -0.54,4.74 -0.098,9.59 -0.098,14.02"
         style="fill:#f5e3f3;fill-opacity:1;fill-rule:evenodd;stroke:none"
         id="path58" />
      <path
         d="m 757.566,3054.4 c 4.625,-0.23 8.821,0.31 10.481,-3.71 1.953,-4.77 -2.449,-6 -5.465,-7.52 -5.949,-3 -11.449,-6.5 -15.769,-11.67 -8.778,-10.49 -9.762,-18.96 -3.329,-29.56 6.829,-11.25 13.047,-13.75 27.239,-10.86 2.328,0.47 4.593,1.37 6.949,1.61 2.355,0.24 5.105,0.03 5.828,-2.75 0.379,-1.47 -0.219,-3.52 -1.039,-4.92 -6.527,-11.13 -18.875,-16.15 -30.723,-12.66 -14.746,4.34 -30.722,26.15 -30.25,41.28 0.461,14.76 16.145,35.53 30.067,39.66 2.269,0.67 4.675,0.87 6.011,1.1"
         style="fill:#faf0f9;fill-opacity:1;fill-rule:evenodd;stroke:none"
         id="path60" />
      <path
         d="m 1045.24,2875.53 c 1.38,-9.84 -1.49,-19.71 -3.88,-29.62 -1.09,-4.49 -4.06,-7.75 -8.97,-7.01 -4.38,0.66 -4.86,4.69 -5.09,8.4 -1.06,17.24 -3.18,34.47 0,51.72 0.79,4.3 1.43,8.83 6.45,9.58 5.28,0.79 6.83,-3.59 8.34,-7.67 3.01,-8.04 3.74,-16.35 3.15,-25.4"
         style="fill:#faf0f9;fill-opacity:1;fill-rule:evenodd;stroke:none"
         id="path62" />
      <path
         d="m 815.137,2867.39 c -0.055,10.73 -2.047,21.67 2.539,32.05 1.535,3.49 2.929,6.78 7.461,6.14 4.133,-0.58 6.351,-3.68 6.777,-7.38 0.609,-5.35 0.856,-10.82 0.449,-16.19 -1,-13.13 -2.207,-26.26 -3.883,-39.32 -0.496,-3.89 -1.417,-9.36 -6.445,-9.6 -5.254,-0.26 -6.426,5.23 -6.707,9.09 -0.621,8.36 -0.191,16.8 -0.191,25.21"
         style="fill:#f9eef8;fill-opacity:1;fill-rule:evenodd;stroke:none"
         id="path64" />
      <path
         d="m 789.16,2870.07 c 0,-8.33 0.199,-16.67 -0.09,-24.99 -0.148,-4.21 -1.273,-9.07 -6.414,-9.16 -5.168,-0.09 -6.57,5.22 -6.82,8.98 -0.824,12.45 -0.91,24.95 -1.035,37.44 -0.051,4.73 0,9.61 1.09,14.15 0.98,4.05 3.8,8.09 8.699,7.18 4.062,-0.74 4.746,-4.89 4.781,-8.59 0.063,-8.34 0.024,-16.68 0.024,-25.01 -0.082,0 -0.157,0 -0.235,0"
         style="fill:#faf0f9;fill-opacity:1;fill-rule:evenodd;stroke:none"
         id="path66" />
      <path
         d="m 922.875,2877.6 c 0,8.31 -0.117,16.63 0.059,24.94 0.058,3.1 1.441,6 4.808,6.61 4.071,0.75 6.731,-1.65 8.219,-5.2 0.68,-1.6 1.09,-3.44 1.094,-5.18 0.062,-15.44 0.203,-30.89 -0.129,-46.33 -0.11,-4.8 -1.692,-10.25 -7.988,-9.51 -4.844,0.58 -5.852,5.42 -5.946,9.71 -0.164,8.32 -0.043,16.64 -0.043,24.96 -0.023,0 -0.054,0 -0.074,0"
         style="fill:#faeff8;fill-opacity:1;fill-rule:evenodd;stroke:none"
         id="path68" />
      <path
         d="m 975.32,3173.6 c 9.114,-0.07 16.239,-7.14 15.715,-15.58 -0.504,-8.1 -10.144,-17.15 -17.894,-16.78 -7.676,0.36 -13.907,7.15 -14.176,15.43 -0.332,9.98 6.473,17.01 16.355,16.93"
         style="fill:#429939;fill-opacity:1;fill-rule:evenodd;stroke:none"
         id="path70" />
      <path
         d="m 930.547,3159.06 c 0.215,-9.67 -5.723,-17.16 -14.086,-17.78 -8.695,-0.66 -15.66,6.32 -15.773,15.8 -0.106,9.38 6.109,16 15.375,16.37 9.066,0.35 14.281,-4.82 14.484,-14.39"
         style="fill:#b22967;fill-opacity:1;fill-rule:evenodd;stroke:none"
         id="path72" />
      <path
         d="m 1031.72,3144.81 c -8.05,0.3 -13.31,6.92 -12.85,16.18 0.45,8.84 6.68,15.44 14.33,15.16 7.52,-0.28 14.7,-7.83 14.68,-15.43 -0.02,-8.39 -7.98,-16.21 -16.16,-15.91"
         style="fill:#f2c04b;fill-opacity:1;fill-rule:evenodd;stroke:none"
         id="path74" />
      <path
         d="m 894.711,3017.65 c 0,5.97 -0.781,12.07 0.191,17.89 1.211,7.29 6.922,9.21 13.5,5.49 13.786,-7.82 18.075,-27.7 8.606,-40.78 -4.231,-5.85 -10.266,-8.38 -17.34,-6.71 -7.52,1.79 -5.113,8.34 -5.508,13.34 -0.277,3.56 -0.055,7.17 -0.055,10.77 0.196,0 0.403,0 0.606,0"
         style="fill:#c4a1d7;fill-opacity:1;fill-rule:evenodd;stroke:none"
         id="path76" />
      <path
         d="m 839.746,3019.84 c -0.183,-11.06 -6.539,-19.65 -14.492,-19.61 -8.609,0.04 -17.504,11.25 -17.434,21.95 0.075,10.11 7.203,18.03 16.196,17.97 9.183,-0.07 15.925,-8.77 15.73,-20.31"
         style="fill:#c3a1d7;fill-opacity:1;fill-rule:evenodd;stroke:none"
         id="path78" />
      <path
         d="m 720.391,2867.69 c -0.805,7.59 0.41,14.28 6.652,19.25 2.844,2.27 5.687,2.75 8.82,0.75 11.301,-7.22 10.809,-28.37 3.946,-34.31 -3.192,-2.76 -6.434,-5.52 -11.121,-3.99 -5.188,1.69 -7.649,5.64 -8.243,10.8 -0.289,2.53 -0.054,5.13 -0.054,7.5"
         style="fill:#c29fd6;fill-opacity:1;fill-rule:evenodd;stroke:none"
         id="path80" />
      <path
         d="m 861.77,2867.69 c -0.809,7.59 0.41,14.28 6.648,19.25 2.848,2.27 5.687,2.75 8.824,0.75 11.297,-7.22 10.805,-28.37 3.946,-34.31 -3.196,-2.76 -6.438,-5.52 -11.125,-3.99 -5.184,1.69 -7.645,5.64 -8.243,10.8 -0.289,2.53 -0.05,5.13 -0.05,7.5"
         style="fill:#c29fd6;fill-opacity:1;fill-rule:evenodd;stroke:none"
         id="path82" />
      <path
         d="m 965.754,2864.96 c -0.809,7.58 0.406,14.28 6.648,19.25 2.848,2.27 5.688,2.75 8.825,0.75 11.296,-7.22 10.804,-28.37 3.945,-34.31 -3.195,-2.76 -6.438,-5.52 -11.125,-3.99 -5.184,1.69 -7.645,5.64 -8.242,10.79 -0.285,2.54 -0.051,5.14 -0.051,7.51"
         style="fill:#c29fd6;fill-opacity:1;fill-rule:evenodd;stroke:none"
         id="path84" />
      <path
         d="m 2950.86,4457.96 c -1.59,-64.04 -2.71,-110.87 -3.89,-157.7 -0.81,-32.03 -13.85,-47.42 -45.27,-52.33 -9.43,-1.47 -19.14,-1.57 -28.72,-1.73 -57.1,-0.95 -114.17,1.61 -171.03,5.57 -52.8,3.68 -105.63,0.62 -158.34,3.94 -10.18,0.64 -20.48,1.08 -30.43,3.11 -24.23,4.95 -36.71,19.13 -36.89,43.91 -0.26,37.22 0.4,74.46 1.64,111.66 0.76,22.84 0.99,45.65 0.36,68.44 -0.93,34.26 -0.57,68.43 2.6,102.6 3.22,34.89 17.48,50.32 52.55,54.86 26.83,3.47 53.92,3.96 80.9,4.39 87.14,1.38 174.05,-5 260.96,-10.57 13.78,-0.89 27.62,-1.1 41.39,-2.15 22.11,-1.67 29.08,-7.83 34.94,-29.4 2.72,-9.98 2.84,-20.17 3.09,-30.38 0.98,-43.89 -2.7,-87.62 -3.86,-114.22"
         style="fill:#264f66;fill-opacity:1;fill-rule:evenodd;stroke:none"
         id="path86" />
      <path
         d="m 2756.79,4436.79 c 5.19,18.07 7.78,36.06 16.02,52.32 2.41,4.73 3.72,10.87 10.94,9.83 5.89,-0.86 6.61,-6.09 7.85,-10.78 6.72,-25.55 13.58,-51.05 20.26,-76.61 1.36,-5.22 3.21,-11.46 -4.28,-13.3 -6.68,-1.64 -9.91,3.7 -11.49,9.01 -3.23,10.92 -5.64,22.09 -8.66,33.09 -2.17,7.86 -2.6,16.37 -8.93,25.69 -4.55,-19.03 -8.5,-35.65 -12.53,-52.25 -0.99,-4.07 -1.78,-8.31 -3.58,-12.04 -2.52,-5.25 -8.54,-5.69 -11.12,-0.55 -3.18,6.4 -5.4,13.35 -7.38,20.26 -3.96,13.71 -7.47,27.55 -13.33,41.12 -2.45,-15.1 -4.92,-30.21 -7.37,-45.32 -0.48,-2.97 -0.35,-6.17 -1.46,-8.87 -1.6,-3.96 -0.79,-11.09 -7.49,-10 -5.18,0.85 -3.87,6.73 -3.59,10.58 1.92,25.76 4.31,51.48 10.31,76.69 1.09,4.58 1.53,10.16 7.56,10.97 6.93,0.93 8.89,-4.75 11.2,-9.68 5.4,-11.5 8.19,-23.81 11.02,-36.11 1.04,-4.49 -0.08,-9.83 6.05,-14.05"
         style="fill:#faf0f9;fill-opacity:1;fill-rule:evenodd;stroke:none"
         id="path88" />
      <path
         d="m 2577.9,4509.43 c 7.94,-16.19 1.17,-34.63 4.73,-51.41 1.27,-0.84 2.18,-2 3.1,-2 24.24,0.45 21.46,-3.68 23.1,21.86 0.51,7.77 1.18,15.54 1.97,23.29 0.31,3.18 2.01,5.8 5.5,5.98 3.32,0.17 6.03,-1.94 6.68,-4.93 0.98,-4.63 1.56,-9.49 1.34,-14.2 -1.15,-24.55 -2.46,-49.1 -4.04,-73.63 -0.4,-6.29 0.3,-15.3 -8.85,-14.86 -9.27,0.45 -7.45,9 -7,15.47 0.3,4.19 1.27,8.38 1.07,12.54 -0.22,4.35 3.12,10.37 -3.23,12.58 -5.67,1.99 -12,1.9 -17.77,0.24 -3.09,-0.9 -2.8,-4.85 -2.92,-7.85 -0.39,-9.58 -0.48,-19.19 -1.37,-28.71 -0.34,-3.37 -2.21,-7.44 -6.67,-7.21 -4.19,0.2 -5.99,3.66 -6.05,7.49 -0.63,33.58 -0.5,67.15 3.89,100.53 0.33,2.48 1.86,4.39 6.52,4.82"
         style="fill:#f7edf8;fill-opacity:1;fill-rule:evenodd;stroke:none"
         id="path90" />
      <path
         d="m 2851.58,4453.15 c 0,-10.78 0.3,-21.58 -0.1,-32.35 -0.32,-8.14 2.19,-12.4 11.14,-11.78 6.56,0.44 13.2,-0.22 19.24,-3.41 2.87,-1.53 4.53,-3.92 4.16,-7.2 -0.37,-3.33 -2.69,-5.86 -5.71,-6.11 -11.88,-1.03 -23.88,-3.1 -35.74,-0.77 -8.78,1.71 -9.85,9.03 -10.06,16.76 -0.52,19.81 1.12,39.5 2.64,59.21 0.5,6.56 0.46,13.2 1.38,19.71 0.69,4.98 -0.07,12.46 7.15,12.47 7.62,0.01 6.33,-7.3 6.44,-12.38 0.23,-11.38 0.07,-22.77 0.07,-34.15 -0.2,0 -0.4,0 -0.61,0"
         style="fill:#f6edf8;fill-opacity:1;fill-rule:evenodd;stroke:none"
         id="path92" />
      <path
         d="m 2659.4,4444.86 c 0.73,12.68 1.15,23.43 1.99,34.14 0.58,7.68 -0.76,13.2 -10.27,12.15 -1.17,-0.13 -2.39,0.08 -3.57,0.23 -3.87,0.5 -7.22,2.14 -7.36,6.35 -0.2,5.04 3.46,7.86 7.93,7.97 15.5,0.42 31.05,0.51 46.57,0.25 4.49,-0.08 8.24,-3.09 7.86,-8 -0.28,-3.81 -3.78,-5.34 -7.46,-6.57 -5.35,-1.77 -13.09,2.17 -15.88,-5.03 -1.87,-4.83 -1.42,-10.57 -1.94,-15.89 -1.83,-18.43 -3.57,-36.87 -5.48,-55.29 -0.43,-4.13 -1.11,-8.26 -2.14,-12.26 -0.59,-2.25 -2.18,-4.2 -5.05,-4.09 -3.28,0.12 -3.78,2.79 -3.9,4.99 -0.58,10.13 -0.92,20.27 -1.27,30.42 -0.13,4.18 -0.03,8.36 -0.03,10.63"
         style="fill:#f8f0f9;fill-opacity:1;fill-rule:evenodd;stroke:none"
         id="path94" />
      <path
         d="m 3213.73,3990.17 c 162.31,0 324.63,0.02 486.94,-0.04 19.99,0 24.76,-4.56 24.08,-24.35 -7.01,-200.7 -3.19,-401.49 -5.24,-602.24 -0.06,-4.79 0.31,-9.76 -0.79,-14.35 -1.84,-7.66 -8.82,-10.22 -15.32,-5.61 -4.86,3.46 -9.17,7.8 -13.27,12.17 -25.53,27.14 -51.38,54.01 -76.16,81.83 -8.88,9.99 -17.98,13.22 -31.21,12.82 -147.2,-4.44 -294.46,-6.84 -441.73,-8.97 -132.23,-1.91 -264.46,-4.24 -396.67,-6.31 -26.29,-0.4 -29.99,2.68 -32.12,29.06 -1.65,20.36 -2.64,40.81 -2.95,61.23 -2.26,146.66 -4.26,293.33 -6.34,439.98 -0.06,4.2 -0.16,8.45 0.38,12.6 1.07,8.31 5.66,12.72 14.49,12.7 12.62,-0.04 25.25,0.41 37.86,0.67 152.68,3.09 305.37,1.49 458.05,-1.19"
         style="fill:#283976;fill-opacity:1;fill-rule:evenodd;stroke:none"
         id="path96" />
      <path
         d="m 3042.67,3927.8 c -68.42,-0.54 -136.83,-2.97 -205.24,0.17 -3.6,0.16 -7.2,0.28 -10.78,0.57 -6.43,0.55 -12.49,2.52 -12.67,10.01 -0.18,7.65 6.44,9.46 12.39,10.64 4.66,0.93 9.53,1.06 14.31,1.16 133.84,2.82 267.67,4.48 401.53,4.11 6,-0.02 12.05,0.08 17.97,-0.77 5.74,-0.82 10.06,-4.38 10.61,-10.56 0.65,-7.26 -4.02,-11.3 -10.35,-12.6 -5.81,-1.19 -11.91,-1.19 -17.89,-1.24 -60.02,-0.55 -120.05,-1 -180.08,-1.48 -6.59,-0.04 -13.2,-0.01 -19.8,-0.01"
         style="fill:#c19ed5;fill-opacity:1;fill-rule:evenodd;stroke:none"
         id="path98" />
      <path
         d="m 3020.61,3491.75 c -75.05,-1.95 -150.08,-3.91 -225.11,-5.88 -9.05,-0.24 -18.02,0.23 -26.66,3.23 -2.94,1.01 -5.4,2.7 -5.03,6.37 0.3,2.81 2.63,3.8 4.79,4.8 6.72,3.07 13.96,3.59 21.13,4 34.18,1.96 68.33,4.3 102.52,5.42 100.84,3.29 201.69,6.05 302.53,9.07 19.8,0.6 39.6,1.5 59.4,2.21 3.59,0.12 7.21,0.03 10.81,0.04 6.62,0.03 12.52,-1.77 12.84,-9.39 0.32,-8.02 -6.46,-9.12 -12.46,-10.15 -3.52,-0.61 -7.17,-0.75 -10.75,-0.88 -78.01,-2.81 -156.03,-5.58 -234.03,-8.36 0.01,-0.16 0.01,-0.32 0.02,-0.48"
         style="fill:#f6843a;fill-opacity:1;fill-rule:evenodd;stroke:none"
         id="path100" />
      <path
         d="m 2963.76,3864.63 c -60.73,0 -121.47,-0.03 -182.2,0.06 -5.97,0.02 -12.04,0.37 -17.91,1.45 -5.15,0.94 -11.5,1.93 -11.27,9.22 0.23,6.07 5.71,7.2 10.38,8.18 4.67,0.99 9.48,1.65 14.25,1.8 125.02,3.83 250.08,4.23 375.14,4.77 0.61,0.01 1.21,0.01 1.81,-0.01 12.09,-0.47 16.94,-3.62 17.3,-11.23 0.38,-7.76 -4.56,-11.68 -16.33,-12.23 -13.81,-0.63 -27.64,-1.21 -41.46,-1.24 -49.91,-0.16 -99.81,-0.07 -149.71,-0.07 0,-0.24 0,-0.46 0,-0.7"
         style="fill:#f6843a;fill-opacity:1;fill-rule:evenodd;stroke:none"
         id="path102" />
      <path
         d="m 2965.05,3605.32 c -62.08,-1.41 -119.06,-2.74 -176.04,-3.94 -7.18,-0.15 -14.43,-0.4 -21.46,1.64 -3.57,1.03 -7.19,2.34 -7.62,6.57 -0.51,5.13 3.1,7.96 7.44,8.53 12.48,1.64 25.03,3.31 37.57,3.79 47.36,1.82 94.76,3.09 142.12,4.73 61.16,2.12 122.31,4.42 183.47,6.59 5.39,0.2 10.82,0.3 16.19,-0.04 6.73,-0.42 11.71,-3.78 11.92,-10.93 0.22,-7.4 -5.03,-10.59 -11.63,-11.08 -13.14,-0.98 -26.34,-1.8 -39.51,-2.2 -49.18,-1.49 -98.42,-0.88 -142.45,-3.66"
         style="fill:#f6843a;fill-opacity:1;fill-rule:evenodd;stroke:none"
         id="path104" />
      <path
         d="m 2896.38,3546.51 c -38.46,-1.17 -76.84,-3.95 -115.34,-3.36 -5.95,0.09 -12.08,-0.65 -17.52,2.82 -6.22,3.95 -6.33,10.67 0.11,14.27 5.87,3.29 12.54,3.88 19.21,4.23 41.39,2.16 82.79,4.74 124.2,6.5 51.63,2.18 103.31,3.74 154.96,5.47 5.38,0.19 10.81,0.11 16.15,-0.5 4.59,-0.52 7.56,-3.66 8.31,-8.26 0.92,-5.51 -1.92,-9.07 -6.67,-11.48 -3.92,-2 -8.14,-1.83 -12.33,-2.02 -57.04,-2.56 -114.06,-5.12 -171.08,-7.67"
         style="fill:#fac54a;fill-opacity:1;fill-rule:evenodd;stroke:none"
         id="path106" />
      <path
         d="m 2852.37,3665.43 c -28.25,0 -56.49,-0.15 -84.73,0.1 -7.42,0.07 -16.74,-2.03 -18.99,8.82 -1.32,6.42 6.43,11.33 18.86,12.58 2.38,0.24 4.8,0.21 7.21,0.26 66.01,1.61 131.98,4.79 198.05,4.44 21.55,-0.13 43.04,3.41 64.69,2.71 15.67,-0.51 21.8,-4.04 21.25,-13.11 -0.51,-8.22 -6.01,-11.48 -20.9,-11.77 -13.81,-0.26 -27.63,-0.15 -41.45,-0.28 -48.02,-0.45 -95.92,-5.68 -143.99,-3.75"
         style="fill:#439b39;fill-opacity:1;fill-rule:evenodd;stroke:none"
         id="path108" />
      <path
         d="m 3071.58,3728.07 c -44.47,-0.57 -88.93,-1.22 -133.41,-1.61 -7.63,-0.06 -16.55,-1 -19.41,8.89 -1.69,5.8 5.19,10.78 19.2,11.83 28.14,2.1 56.38,3.55 84.6,4.54 61.28,2.15 122.56,3.83 183.85,5.72 14.63,0.45 20.8,-2.5 21.59,-10.4 0.88,-8.59 -5.71,-12.6 -21.29,-13.16 -45.06,-1.61 -90.1,-3.27 -135.15,-4.91 0,-0.3 0.01,-0.6 0.02,-0.9"
         style="fill:#c09ed5;fill-opacity:1;fill-rule:evenodd;stroke:none"
         id="path110" />
      <path
         d="m 2797.77,3792.39 c -16.23,0.35 -28.86,-0.94 -41.22,2.75 -4.27,1.29 -8.13,2.5 -8.12,7.9 0.03,5.12 3.68,7.5 7.76,8.68 3.97,1.15 8.21,1.63 12.36,1.79 52.1,2.07 104.21,3.36 156.33,4.56 41.33,0.95 82.64,2.84 123.99,2.81 15.16,-0.02 20.73,-3.33 20.14,-11.5 -0.55,-7.4 -5.46,-9.46 -19.77,-10.29 -68.87,-4.02 -137.83,-3.12 -206.77,-4.08 -16.12,-0.22 -32.11,-4.07 -44.7,-2.62"
         style="fill:#439b39;fill-opacity:1;fill-rule:evenodd;stroke:none"
         id="path112" />
      <path
         d="m 3433.8,3561.78 c -58.64,-4.27 -105.51,-3.45 -152.34,-3.94 -7.18,-0.08 -14.43,-0.04 -21.57,0.79 -4.63,0.53 -10.3,1.82 -10.13,8.04 0.12,5.18 5.03,6.15 9.22,6.87 4.72,0.82 9.51,1.31 14.25,1.93 37.68,4.92 75.57,3.17 113.36,3.41 60.66,0.38 121.31,0.18 181.93,3.14 6.53,0.31 13.26,0.9 19.63,-1.41 4.24,-1.54 7.27,-4.31 7.22,-9.23 -0.07,-5.07 -3.63,-7.56 -7.77,-8.7 -3.38,-0.94 -7.11,-0.86 -10.71,-0.86 -51.65,-0.05 -103.29,-0.04 -143.09,-0.04"
         style="fill:#f6843b;fill-opacity:1;fill-rule:evenodd;stroke:none"
         id="path114" />
      <path
         d="m 3406.66,3726.8 c -15.63,0 -31.27,-0.04 -46.88,0.02 -3.61,0.01 -7.25,0.09 -10.8,0.61 -4.57,0.66 -7.93,3.32 -8.35,8.08 -0.45,4.98 2.93,7.92 7.33,8.82 8.2,1.68 16.57,3.99 24.81,3.83 32.51,-0.61 64.81,3.08 97.11,5.08 39.63,2.45 79.23,2 118.84,2.92 4.8,0.11 9.64,0.17 14.41,-0.21 6.08,-0.49 10.34,-3.62 10.63,-10.07 0.33,-7.37 -4.1,-11.01 -10.99,-11.63 -13.12,-1.2 -26.27,-2.35 -39.43,-3.08 -9,-0.49 -18.05,-0.56 -27.05,-0.29 -43.29,1.31 -86.33,-5.39 -129.63,-4.08"
         style="fill:#439b39;fill-opacity:1;fill-rule:evenodd;stroke:none"
         id="path116" />
      <path
         d="m 3430.37,3867.23 c -32.36,0 -64.76,-0.12 -97.14,0.06 -14.23,0.08 -19.52,3.15 -19.68,10.42 -0.15,7.16 5.56,10.78 19.3,11.45 66.51,3.23 133.06,3.99 199.62,3.96 1.21,0 2.4,0.06 3.6,-0.02 10.43,-0.68 16.07,-4.71 15,-11.4 -1.28,-8.04 -7.47,-10.05 -14.61,-10.28 -32.95,-1.08 -65.93,-2.17 -98.89,-3.23 -2.39,-0.08 -4.79,-0.02 -7.2,-0.02 0,-0.3 0,-0.62 0,-0.94"
         style="fill:#fac54a;fill-opacity:1;fill-rule:evenodd;stroke:none"
         id="path118" />
      <path
         d="m 3389.92,3823.49 c 26.33,1.03 52.67,2.03 79.03,3.12 5.42,0.22 10.8,0.25 15.89,-1.94 4.98,-2.12 7.39,-5.95 6.94,-11.35 -0.39,-4.81 -3.72,-7.47 -7.83,-8.84 -2.76,-0.92 -5.86,-0.99 -8.84,-1.11 -58.65,-2.55 -117.26,-6.13 -176.02,-3.79 -5.96,0.25 -11.98,-0.12 -17.71,2.16 -3.53,1.4 -6.6,3.14 -6.83,7.34 -0.23,4.25 2.67,6.52 6.21,7.76 6.82,2.4 13.88,3.56 21.12,3.8 29.35,1 58.7,2.1 88.03,3.17 0,-0.1 0,-0.22 0.01,-0.32"
         style="fill:#f6843a;fill-opacity:1;fill-rule:evenodd;stroke:none"
         id="path120" />
      <path
         d="m 3275.39,3614.25 c -22.83,0 -45.68,-0.23 -68.52,0.15 -6.79,0.12 -16.97,-1.41 -17.52,8.08 -0.65,10.89 10.2,10.04 17.49,10.63 63.53,5.07 127.22,6.58 190.93,7.41 1.81,0.03 3.63,0 5.4,-0.2 6.14,-0.7 10.33,-3.93 10.48,-10.26 0.17,-6.58 -4.75,-9.28 -10.38,-10.5 -2.9,-0.63 -5.98,-0.6 -8.97,-0.67 -39.66,-0.92 -79.21,-4.65 -118.91,-4.64"
         style="fill:#c09ed5;fill-opacity:1;fill-rule:evenodd;stroke:none"
         id="path122" />
      <path
         d="m 3241.32,3672.42 c -16.18,0 -32.36,-0.07 -48.54,0.06 -4.17,0.03 -8.39,0.43 -12.49,1.16 -3.77,0.67 -6.72,2.89 -6.9,7.1 -0.19,4.13 2.36,6.74 6.07,7.81 3.99,1.16 8.12,2.14 12.24,2.49 52.56,4.37 105.26,5.78 157.97,6.7 0.6,0.01 1.19,0.01 1.79,0 12.3,-0.36 18.28,-3.73 17.42,-10.55 -1.22,-9.57 -8.92,-10.23 -16.28,-10.15 -37.19,0.4 -74.06,-6.47 -111.28,-4.62"
         style="fill:#fac54a;fill-opacity:1;fill-rule:evenodd;stroke:none"
         id="path124" />
      <path
         d="m 3498.82,3693.28 c 22.77,0 45.56,0.01 68.35,-0.02 4.19,-0.01 8.41,0.02 12.55,-0.45 5.09,-0.57 9.41,-2.6 9.83,-8.56 0.43,-6 -3.74,-8.59 -8.56,-9.88 -3.42,-0.91 -7.12,-0.98 -10.71,-0.99 -41.97,0 -83.93,-0.1 -125.9,0.25 -9.55,0.08 -19.08,1.72 -28.59,2.85 -5.46,0.65 -12.03,1.77 -11.99,8.4 0.04,7.05 7.43,6.74 12.38,7.71 5.24,1.05 10.7,1.21 16.08,1.24 22.17,0.12 44.36,0.05 66.56,0.05 0,-0.2 0,-0.4 0,-0.6"
         style="fill:#bc9bd4;fill-opacity:1;fill-rule:evenodd;stroke:none"
         id="path126" />
      <path
         d="m 3537.92,3615.05 c -25.61,1.87 -54.47,-2.13 -83,3.25 -2.33,0.45 -4.79,0.45 -7.09,1.05 -3.04,0.8 -5.45,2.63 -5.69,6.05 -0.24,3.54 2.3,5.4 5.15,6.47 2.19,0.83 4.64,1.05 7.01,1.3 49.56,5.05 99.27,2.75 148.95,3.38 1.19,0.01 2.39,0.01 3.59,-0.11 10.99,-1.21 18.22,-5.93 17.22,-12.2 -1.72,-11.05 -10.82,-9.11 -18.38,-9.15 -21.56,-0.1 -43.13,-0.04 -67.76,-0.04"
         style="fill:#429939;fill-opacity:1;fill-rule:evenodd;stroke:none"
         id="path128" />
      <path
         d="m 3170.78,3820.58 c 17.38,0 34.75,0.07 52.11,-0.04 4.16,-0.02 8.47,-0.01 12.42,-1.09 4.18,-1.14 7.12,-4.36 7.65,-9.03 0.61,-5.38 -1.71,-9.26 -6.48,-11.69 -3.81,-1.97 -7.96,-2.41 -12.19,-2.51 -38.34,-0.96 -76.68,-1.56 -114.95,1.79 -6.96,0.6 -16.77,-0.35 -17.12,8.97 -0.42,10.95 10.24,10.02 17.52,10.2 20.34,0.52 40.69,0.18 61.03,0.18 0,1.07 0.01,2.15 0.01,3.22"
         style="fill:#f6c44a;fill-opacity:1;fill-rule:evenodd;stroke:none"
         id="path130" />
      <path
         d="m 3545.3,3504.19 c -23.36,0 -46.72,-0.15 -70.07,0.09 -6.54,0.07 -13.06,1.18 -19.59,2.06 -2.47,0.33 -4.33,2 -4.9,4.6 -0.72,3.43 1.2,5.59 3.91,7.22 4.25,2.57 8.99,2.85 13.83,3.26 51.42,4.41 102.99,2.65 154.51,3.82 2.37,0.05 4.82,0.02 7.16,-0.35 4.68,-0.73 7.74,-3.75 8.05,-8.32 0.41,-5.63 -3.16,-8.8 -8.45,-9.77 -2.92,-0.53 -5.97,-0.54 -8.96,-0.55 -25.16,-0.03 -50.33,-0.01 -75.5,-0.01 0,-0.69 0,-1.37 0.01,-2.05"
         style="fill:#f9c549;fill-opacity:1;fill-rule:evenodd;stroke:none"
         id="path132" />
      <path
         d="m 3559.1,3921.99 c -17.4,0 -34.83,0.21 -52.24,-0.09 -8.57,-0.16 -16.58,2.48 -24.85,3.77 -5.1,0.8 -9.97,3.38 -9.39,8.95 0.51,4.88 5.83,5.48 10.09,5.36 17.46,-0.54 34.67,2.8 52.04,3.15 27.61,0.57 55.24,0.54 82.87,0.74 3.6,0.02 7.21,0.04 10.8,-0.27 5.21,-0.44 9.42,-2.7 10.29,-8.3 0.9,-5.84 -3.19,-8.5 -7.84,-10.57 -5.11,-2.26 -10.51,-2.33 -15.92,-2.33 -18.61,0 -37.24,0 -55.85,0 0,-0.13 0,-0.28 0,-0.41"
         style="fill:#429939;fill-opacity:1;fill-rule:evenodd;stroke:none"
         id="path134" />
      <path
         d="m 3596.85,3802.34 c -18.01,-0.01 -36.03,-0.08 -54.04,0.05 -4.77,0.04 -9.61,0.42 -14.32,1.22 -4.84,0.83 -10.02,2.67 -9.6,8.63 0.32,4.87 5.37,6.44 9.39,7.07 8.88,1.36 17.88,2 26.83,2.85 33.52,3.2 67.19,2.02 100.79,2.65 2.39,0.04 4.84,0.02 7.17,-0.44 6.14,-1.22 9.45,-5.17 9.17,-11.4 -0.26,-5.42 -3.59,-8.9 -8.81,-9.93 -3.49,-0.7 -7.16,-0.65 -10.75,-0.67 -18.61,-0.06 -37.23,-0.03 -55.83,-0.03"
         style="fill:#c09ed5;fill-opacity:1;fill-rule:evenodd;stroke:none"
         id="path136" />
      <path
         d="m 3239.01,3868.41 c -7.74,0.42 -20.35,-0.83 -32.84,1.49 -6.38,1.18 -12.47,3.45 -12.31,10.66 0.16,7.25 6.58,9.28 12.86,10.13 23.25,3.14 46.64,2.14 69.99,1.89 7.36,-0.08 12.88,-4.2 12.71,-12.2 -0.16,-8.03 -6.04,-11.53 -13.26,-11.84 -10.76,-0.46 -21.56,-0.13 -37.15,-0.13"
         style="fill:#f6c34a;fill-opacity:1;fill-rule:evenodd;stroke:none"
         id="path138" />
      <path
         d="m 3413.05,3921.74 c -1.83,0.1 -7.91,-0.11 -13.77,0.91 -5.84,1.02 -9.52,5 -9.41,11.36 0.12,5.45 3.19,9.14 8.33,10.39 12.42,3 24.99,2.75 37.43,0.4 5.82,-1.1 9.56,-5.12 9.32,-11.5 -0.23,-7.29 -5.01,-10.72 -11.56,-11.43 -5.31,-0.59 -10.78,-0.13 -20.34,-0.13"
         style="fill:#f3833a;fill-opacity:1;fill-rule:evenodd;stroke:none"
         id="path140" />
      <path
         d="m 2862,3726 c -6.33,0.58 -12.41,0.56 -18.2,1.89 -4.13,0.94 -7.43,4.21 -7.45,9.05 -0.01,3.92 2.39,6.95 5.83,8.4 11.94,5.04 24.56,4.96 37.12,3.62 5.38,-0.58 8.06,-5.14 8.35,-10.31 0.3,-5.53 -3.44,-9.33 -8.17,-10.6 -5.69,-1.51 -11.81,-1.46 -17.48,-2.05"
         style="fill:#be9cd4;fill-opacity:1;fill-rule:evenodd;stroke:none"
         id="path142" />
      <path
         d="m 3112.95,3670.46 c -6.26,0.79 -13.37,1.46 -20.38,2.64 -3.93,0.65 -6.11,3.71 -6.48,7.54 -0.39,4.07 2.14,7.1 5.66,8.09 12.63,3.52 25.61,4.99 38.65,3.63 5.05,-0.53 8.3,-4.69 8.09,-10.23 -0.19,-5.49 -3.45,-8.84 -8.7,-9.75 -5.27,-0.9 -10.63,-1.23 -16.84,-1.92"
         style="fill:#f8c449;fill-opacity:1;fill-rule:evenodd;stroke:none"
         id="path144" />
      <path
         d="m 3400.26,3502.93 c -7.55,0.5 -14.27,-0.55 -20.35,2.75 -3.2,1.74 -6.01,4.17 -6.15,8.14 -0.13,4.19 2.94,6.18 6.31,7.75 11.41,5.32 23.42,4.08 35.18,2.44 5.03,-0.68 7.74,-5.44 7.3,-10.89 -0.45,-5.46 -3.68,-8.81 -9.02,-9.5 -4.73,-0.6 -9.54,-0.51 -13.27,-0.69"
         style="fill:#429939;fill-opacity:1;fill-rule:evenodd;stroke:none"
         id="path146" />
      <path
         d="m 2766.9,3957.1 c 4.92,0.2 9.69,-0.54 13.84,-3.21 8.75,-5.65 8.25,-16.7 -0.72,-22.08 -4.43,-2.66 -9.24,-2.4 -14,-2.18 -11.36,0.54 -18.02,5.48 -18.35,13.33 -0.38,8.56 7.1,14.05 19.23,14.14"
         style="fill:#eebd4b;fill-opacity:1;fill-rule:evenodd;stroke:none"
         id="path148" />
      <path
         d="m 2775.12,3726.95 c -5.36,0 -10.77,-0.39 -16.1,0.12 -3.71,0.36 -6.61,2.7 -7.11,6.86 -0.39,3.23 1.13,5.7 3.44,7.81 6.6,5.98 30.02,9.11 37.81,4.98 4.71,-2.48 7.1,-6.3 6.2,-11.71 -0.92,-5.53 -4.6,-8.27 -9.92,-8.61 -4.75,-0.31 -9.55,-0.07 -14.32,-0.07 0,0.21 0,0.41 0,0.62"
         style="fill:#bd9cd4;fill-opacity:1;fill-rule:evenodd;stroke:none"
         id="path150" />
      <path
         d="m 3331.07,3924.26 c -3.86,0.27 -8.08,0.2 -12.13,0.94 -5.31,0.96 -8.14,4.59 -8.49,9.97 -0.29,4.64 1.7,8.62 5.83,10.14 10.29,3.78 21.05,3.47 31.48,0.77 4.94,-1.28 7.37,-6 6.87,-11.27 -0.51,-5.32 -3.77,-8.77 -9.05,-9.54 -4.69,-0.69 -9.47,-0.69 -14.51,-1.01"
         style="fill:#f6853a;fill-opacity:1;fill-rule:evenodd;stroke:none"
         id="path152" />
      <path
         d="m 3282.71,3729.96 c -2.37,0.15 -4.79,0.01 -7.08,0.52 -5.73,1.25 -13.32,1.72 -14.01,8.69 -0.74,7.64 6.52,11.04 12.74,12.59 5.58,1.39 11.78,1.03 17.63,0.51 5.78,-0.54 10.3,-4.08 10.65,-10.15 0.39,-7.14 -4.63,-10.46 -11.07,-11.63 -2.87,-0.52 -5.89,-0.36 -8.86,-0.53"
         style="fill:#f3833a;fill-opacity:1;fill-rule:evenodd;stroke:none"
         id="path154" />
      <path
         d="m 3603.39,3889.46 c 7.22,-0.92 12.5,-4.06 12.67,-10.93 0.17,-6.1 -4.86,-9.06 -10.48,-10.42 -0.56,-0.15 -1.17,-0.21 -1.77,-0.23 -7.86,-0.38 -15.71,-0.42 -21,6.81 -1.45,1.97 -1.3,4.78 0.35,6.71 5.44,6.45 12.92,7.91 20.23,8.06"
         style="fill:#429738;fill-opacity:1;fill-rule:evenodd;stroke:none"
         id="path156" />
      <path
         d="m 3130.1,3578 c 4.22,-0.01 8.28,-0.75 11.69,-3.35 5.14,-3.91 5.05,-11.19 -0.1,-15.12 -3.48,-2.66 -7.6,-2.96 -11.77,-2.99 -7.46,-0.06 -14.66,1.22 -16.84,9.57 -1.48,5.67 7.86,11.81 17.02,11.89"
         style="fill:#b898d2;fill-opacity:1;fill-rule:evenodd;stroke:none"
         id="path158" />
      <path
         d="m 3198.74,3560.43 c -1.79,0 -3.59,-0.02 -5.4,0 -6.05,0.1 -11.04,2.4 -11.25,8.97 -0.24,7.57 5.24,10.29 11.89,10.43 4.78,0.1 9.6,-0.36 14.32,-1.05 5.33,-0.76 8.91,-3.97 8.92,-9.54 0.01,-5.94 -4.19,-8.18 -9.5,-8.59 -2.96,-0.23 -5.98,-0.04 -8.98,-0.04 0,-0.06 0,-0.12 0,-0.18"
         style="fill:#bd9cd4;fill-opacity:1;fill-rule:evenodd;stroke:none"
         id="path160" />
      <path
         d="m 3680.08,3624.58 c 0.15,-6.93 -6.47,-12.62 -14.74,-12.33 -6.71,0.23 -11.62,3.07 -12.3,10.4 -0.69,7.2 5.19,11.84 14.65,11.84 7.76,-0.01 12.22,-3.58 12.39,-9.91"
         style="fill:#efba4b;fill-opacity:1;fill-rule:evenodd;stroke:none"
         id="path162" />
      <path
         d="m 3328.94,3503.25 c -9.14,0.16 -14.65,4.05 -13.46,10.06 1.68,8.41 8.6,8.57 15.23,8.53 6.42,-0.06 12.53,-1.86 12.43,-9.42 -0.11,-9.06 -7.54,-9.03 -14.2,-9.17"
         style="fill:#429839;fill-opacity:1;fill-rule:evenodd;stroke:none"
         id="path164" />
      <path
         d="m 4061.51,3493.02 c -43.72,19.9 -80.46,48.93 -112.84,84.26 -46.15,50.34 -74.42,109.89 -90.49,175.29 -10.46,42.59 -10.1,85.53 7.88,126.92 3.85,8.83 8.04,17.32 14.7,24.38 23.67,22.89 50.25,39.23 84.13,43.14 23.99,2.77 46.29,0.27 67.86,-10.34 18.78,-9.25 37.08,-19.29 53.56,-32.35 6.01,-4.77 12.78,-9.24 12.53,-18.38 -5.3,-10.18 -16.45,-11.45 -25.22,-16.14 -62.15,-33.13 -81.51,-121.79 -38.59,-177.73 31.6,-41.17 94.97,-49.88 141.63,-19.7 6,3.88 11.04,12.02 20.29,6.72 14.5,-53.41 12.09,-104.91 -20.57,-151.52 -21.56,-30.77 -66.44,-45.7 -102.55,-36.6 -4.05,1.02 -7.99,2.75 -12.32,2.05"
         style="fill:#fbc64a;fill-opacity:1;fill-rule:evenodd;stroke:none"
         id="path166" />
      <path
         d="m 4320.28,3738.81 c 67.3,-122.72 130.09,-247.77 193.9,-372.3 30.68,-59.86 61.02,-119.91 91.37,-179.95 4.1,-8.13 8.71,-15.12 16.31,-20.87 19.66,-14.88 27.26,-57.33 3.72,-77.05 -6.52,-5.45 -9.12,-12.14 -10.78,-19.94 -23.23,-109.25 -46.44,-218.49 -69.88,-327.69 -18.42,-85.71 -37.18,-171.35 -55.7,-257.03 -3.17,-14.67 -6.24,-29.37 -8.8,-44.15 -1.16,-6.71 -4.49,-8.93 -10.94,-8.83 -14.96,0.24 -29.92,0.08 -42.29,0.08 -4.65,4.06 -4.34,6.51 -3.87,8.75 23.52,111.01 46.99,222.02 70.65,332.99 21.02,98.65 42.09,197.28 63.5,295.84 2.41,11.05 2.59,19.83 -4.71,30.03 -11.26,15.74 -12.03,34.14 -1.59,50.97 4.93,7.91 4.3,13.58 0.32,21.19 -71.09,136.36 -141.8,272.9 -213.06,409.17 -10.84,20.71 -24.01,40.2 -36.11,60.25 -2.48,2.96 -3.43,6.63 -2.38,10.05 8.56,27.97 10.65,57.06 15.16,85.73 1.18,1.95 2.91,2.86 5.18,2.76"
         style="fill:#454b67;fill-opacity:1;fill-rule:evenodd;stroke:none"
         id="path168" />
      <path
         d="m 4317.97,3738.15 c 1.86,-33.76 -5.19,-66.09 -15.65,-97.88 -12.5,-23.17 -21.51,-48.15 -37.83,-69.37 -32,-41.6 -70.99,-73.27 -122.62,-86.63 -27.55,-7.13 -54.69,-4.49 -80.36,8.75 3.52,3.82 7.36,2.09 11.56,1.18 40.34,-8.67 95.6,13.75 114.41,62.88 13.52,35.32 13.34,71.02 8.54,107.44 -0.73,5.32 -1.07,10.69 -1.58,16.04 -6.42,3.93 -7.07,10.65 -8.21,17.12 -11.78,66.55 -35.64,127.45 -83.05,177.34 -2.86,3.05 -5.43,6.39 -5.5,10.92 -13.59,18.46 -33.92,27.96 -53.02,38.69 -12.3,6.91 -24.67,13.74 -39.5,16.04 -38.59,6 -73.01,-1.69 -104.17,-25.45 -6,-4.56 -10.86,-12.33 -20.23,-11.35 24.56,34.55 58.78,55.35 98.21,68.65 74.71,25.23 143.75,10.92 208.93,-30.14 4.55,-2.86 9.18,-5.59 13.77,-8.38 3.99,-1.25 8.38,-1.63 11.67,-4.54 51.83,-45.78 96.1,-96.34 106.36,-168.43 1.11,-7.84 1.8,-15.46 -1.73,-22.88"
         style="fill:#f6853b;fill-opacity:1;fill-rule:evenodd;stroke:none"
         id="path170" />
      <path
         d="m 4372.97,2670.57 c 0.15,-1.16 0.15,-2.32 0,-3.48 -7.3,-8.77 -17.26,-6.88 -26.63,-6.21 -59.59,4.29 -119.2,7.6 -179.01,6.16 -6.87,-0.17 -16.06,-4.37 -19.63,6.57 -6.17,52.27 -5.14,104.19 7.91,155.47 8.92,35.07 25.86,65.29 51.89,91.01 35.55,35.12 110.24,38.81 142.66,-22.06 10.61,-19.92 16.26,-41.22 20.04,-63.15 8.94,-51.79 9.42,-103.82 3.66,-155.97 -0.71,-2.74 0.04,-5.63 -0.89,-8.34"
         style="fill:#439b39;fill-opacity:1;fill-rule:evenodd;stroke:none"
         id="path172" />
      <path
         d="m 4408.07,2565.08 c -3.12,-31.06 -10.4,-61.39 -15.9,-92.03 -1.59,-8.87 -4.5,-17.59 -5.02,-26.48 -0.56,-9.92 -5.59,-11.45 -13.97,-11.43 -77.99,0.22 -156,0.38 -234,0.02 -9.92,-0.04 -13.77,3.77 -15.14,12.8 -6.06,40.25 -12.34,80.5 -18.53,120.75 28.82,5.75 58.21,4.61 87.27,6.1 65.12,3.35 130.3,-1.39 195.44,-3.27 7.17,-0.2 14.49,-0.44 19.85,-6.46"
         style="fill:#b15e40;fill-opacity:1;fill-rule:evenodd;stroke:none"
         id="path174" />
      <path
         d="m 4317.97,3738.15 c -3.49,42.55 -16.84,81.93 -41.34,116.72 -19.65,27.89 -44.49,51.44 -70.03,74.07 -1.76,1.55 -3.3,3.36 -4.93,5.05 39.75,18.32 79.17,37.25 121.18,50.22 16.97,5.24 31.95,2.79 46.42,-6.25 54.44,-34.04 79.63,-83.15 75.41,-147.25 -0.99,-14.65 -7.68,-26.28 -19,-35.45 -15.05,-12.19 -31.91,-21.36 -49.52,-29.17 -14.82,-6.57 -29.81,-12.76 -44.67,-19.24 -4.26,-1.86 -9.5,-2.55 -11.21,-8.05 -0.69,-0.51 -1.45,-0.72 -2.31,-0.65"
         style="fill:#c66c33;fill-opacity:1;fill-rule:evenodd;stroke:none"
         id="path176" />
      <path
         d="m 4147.7,2673.61 c 6.8,-5.25 13.97,-0.45 20.79,-0.22 53.96,1.83 107.75,-2.48 161.59,-4.2 14.27,-0.45 28.46,-3.73 42.89,-2.1 15.34,-1.11 30.67,-2.41 46.04,-3.26 7.72,-0.43 10.64,-3.59 8.76,-11.33 -4.15,-17.18 -8.01,-34.41 -12.02,-51.64 -16.88,7.18 -34.54,8.82 -52.76,8.75 -76.24,-0.33 -152.47,-0.24 -228.72,-0.03 -12.28,0.04 -23.81,-1.22 -33.89,-8.88 -5.67,19.63 -6.67,40.04 -10.15,60.04 -1.31,7.54 2.81,8.97 9.24,9.41 16.08,1.08 32.44,-1.72 48.23,3.46"
         style="fill:#b15e40;fill-opacity:1;fill-rule:evenodd;stroke:none"
         id="path178" />
      <path
         d="m 4100.38,2600.7 c 2.73,14.6 2.73,14.91 16.19,14.92 88.62,0.12 177.24,0 265.86,0.25 8.58,0.03 16.37,-3.43 24.75,-3.64 7.75,-0.2 7.59,-6.18 8.57,-11.37 -1.43,-12.16 -3.2,-24.26 -7.68,-35.78 -61.08,-1.01 -121.97,6.2 -183.06,3.85 -16.16,-0.63 -32.7,1.71 -48.48,-0.88 -17.98,-2.99 -35.79,-1.91 -53.68,-2.69 -6.05,-0.28 -11.99,-0.02 -17.34,3.35 -2.28,10.56 -4.83,21.1 -5.13,31.99"
         style="fill:#7d4431;fill-opacity:1;fill-rule:evenodd;stroke:none"
         id="path180" />
      <path
         d="m 4372.97,2670.57 c -0.82,2.91 -1.38,5.8 0.89,8.37 1.27,-2.98 0.93,-5.75 -0.89,-8.37"
         style="fill:#b15e40;fill-opacity:1;fill-rule:evenodd;stroke:none"
         id="path182" />
      <path
         d="m 4097.68,3885.94 c 25.49,-18.64 41.55,-44.88 55.49,-72.08 19.8,-38.61 34.88,-79.07 38.71,-122.9 0.3,-3.51 1.67,-6.94 2.57,-10.4 -24.86,-25.46 -55.28,-33.57 -89.98,-29.86 -58.7,6.27 -97.11,48.63 -97.57,108.04 -0.3,38.31 11.43,71.75 39.28,98.8 14.56,14.14 33.04,21.29 51.5,28.4"
         style="fill:#fef2cd;fill-opacity:1;fill-rule:evenodd;stroke:none"
         id="path184" />
      <path
         d="m 527.152,1150.59 c -14.879,84.73 -11.234,170.08 -8.414,255.39 0.797,24.01 -9.308,44.33 -21.156,63.95 -11.039,18.27 -26.242,32.71 -44.102,44.44 -54.5,35.85 -94.703,83.77 -124.964,141.62 -26.297,50.24 -42.024,103.29 -52.453,158.41 -0.997,5.31 -1.645,10.76 -1.684,16.13 -0.149,15.02 6.699,20.01 20.48,14.06 14.864,-6.44 29.969,-12.82 43.692,-21.31 62.679,-38.76 116.375,-86.89 154.512,-150.98 13.625,-22.9 23.48,-47.29 31.148,-72.67 1.18,-3.92 1.453,-8.17 7.105,-13.56 0,6.39 -0.128,10.71 0.024,15.02 2.613,72.71 5.344,145.39 5.164,218.18 -0.051,19.67 -5.984,36.52 -18.414,51.29 -7.735,9.18 -15.652,18.25 -24.008,26.87 -43.988,45.48 -73.785,98.86 -90.891,159.69 -23.976,85.28 -34.312,171.91 -27.234,260.41 0.57,7.14 1.176,14.51 3.359,21.27 3.227,9.95 11.454,11.85 19.84,5.42 2.36,-1.82 4.285,-4.21 6.278,-6.44 66.707,-74.75 109.129,-162.04 132.886,-258.77 17.438,-70.96 24.457,-143.26 25.465,-216.18 0.317,-22.77 0.055,-45.54 0.055,-70.7 4.988,5.96 5.922,11.15 7.973,15.85 41.707,95.76 101.57,176.89 190.011,234.83 8.524,5.58 17.406,10.79 26.637,15.06 14.32,6.64 22.305,2.07 23.187,-13.35 0.622,-10.77 0.024,-21.65 -0.726,-32.43 -4.242,-60.91 -24.652,-117.29 -49.063,-172.47 -20.351,-46.02 -50.546,-84.32 -91.14,-114.31 -25.66,-18.98 -49.758,-39.72 -72.379,-62.29 -15.172,-15.14 -25.953,-32.97 -35.883,-51.57 -2.594,-4.87 -3.961,-10.04 -4.289,-15.5 -2.91,-48.01 -5.809,-96.02 -8.66,-144.02 -0.098,-1.64 0.336,-3.32 0.621,-5.85 5.113,3.86 5.906,9.34 7.934,14 34.273,78.82 91.308,134.3 170.859,166.74 13.894,5.67 27.781,11.4 41.738,16.97 4.453,1.77 9.012,3.47 13.68,4.47 15.644,3.32 22.676,-2.58 22.215,-18.77 -0.696,-24.17 -4.606,-47.95 -11.793,-70.95 -19.293,-61.8 -47.832,-117.92 -99.457,-159.84 -19.325,-15.68 -41.047,-27.14 -62.567,-39.1 -16.804,-9.34 -33.691,-18.53 -50.465,-27.9 -9.484,-5.3 -18.21,-11.69 -25.64,-19.72 -9.695,-10.46 -15.145,-21.96 -14.945,-37.1 0.535,-41.48 1.16,-82.93 5.867,-124.2 -6.758,-9.94 -13.563,-11.14 -20.403,-0.09"
         style="fill:#449c39;fill-opacity:1;fill-rule:evenodd;stroke:none"
         id="path186" />
      <path
         d="m 402.047,880.469 c -4.336,22.972 -8.711,45.953 -12.949,68.929 -0.868,4.692 -1.211,9.481 -1.801,14.211 13.168,16.25 27.277,20.411 43.433,8.621 18.333,-13.39 35.106,-16.199 54.329,-3.152 10.808,7.363 22.05,4.481 32.066,-2.398 16.504,-11.352 32.602,-10.578 48.559,0.64 12.754,8.961 23.711,7.239 35.808,-2.5 17.985,-14.48 28.082,-13.351 46.246,1.871 23.746,19.887 37.453,19.93 63.301,0.149 -7.48,-30.719 -14.988,-61.418 -22.394,-92.149 -0.969,-4.031 -1.383,-8.179 -2.059,-12.293 4.156,-16.308 -4.598,-26.039 -17.453,-33.359 -5.758,-3.258 -12.293,-4.867 -18.766,-6 -41.32,-7.207 -82.711,-11.559 -124.847,-7.641 -27.965,2.622 -56.18,2.313 -83.758,8.961 -33.117,7.961 -40.309,17.141 -38.477,50.911 0.094,1.871 -0.605,3.519 -1.238,5.199"
         style="fill:#f6853b;fill-opacity:1;fill-rule:evenodd;stroke:none"
         id="path188" />
      <path
         d="m 527.152,1150.59 c 6.825,-3.78 13.618,-3.54 20.391,0.09 54.461,-1.82 108.906,-3.69 163.398,-3.34 5.387,0.04 10.829,0.37 16.153,-0.25 11.769,-1.39 16.515,-6.68 17.14,-18.86 0.77,-15.68 -2.285,-30.83 -6.656,-45.77 -92.637,-2.77 -185.297,-4.62 -277.871,-9.43 -31.695,-1.63 -63.473,0.54 -95.16,-1.82 -5.938,17.04 -7.074,35.08 -10.301,52.66 -2.375,12.96 3.012,18.67 16.66,19.88 14.914,1.34 29.875,2.36 44.836,2.93 37.133,1.49 74.274,2.66 111.41,3.91"
         style="fill:#f6853b;fill-opacity:1;fill-rule:evenodd;stroke:none"
         id="path190" />
      <path
         d="m 382.75,984.602 c -6.449,17.648 -8.668,36.208 -12.07,54.528 6.484,7.06 15.265,6.53 23.496,6.31 77.355,-2.13 154.375,5.9 231.59,8.02 26.89,0.74 53.769,3.5 80.75,2.84 8.246,-0.21 17.015,0.75 23.488,-6.36 -2.488,-20.98 -8.035,-41.25 -13.945,-61.44 -10.528,0.148 -19.711,5.191 -29.196,8.699 -13.254,4.881 -24.992,3.651 -34.988,-6.23 -16.77,-16.61 -33.617,-21.66 -53.523,-4.469 -10.368,8.93 -22.375,7.719 -33.157,-0.641 -16.129,-12.539 -31.84,-14.379 -49.136,-1.339 -11.141,8.39 -24.219,7.429 -35.496,-0.559 -14.11,-10.031 -26.942,-10.66 -40.93,0.371 -13.485,10.617 -28.18,12.688 -43.32,2.27 -3.926,-2.704 -8.559,-4.653 -13.563,-2"
         style="fill:#f6853b;fill-opacity:1;fill-rule:evenodd;stroke:none"
         id="path192" />
      <path
         d="m 402.047,880.469 c 3.168,-10.86 6.527,-21.66 9.441,-32.578 2.289,-8.59 7.481,-11.981 16.262,-14.071 52.965,-12.609 106.496,-15.019 160.668,-12.218 24.062,1.238 47.621,4.109 71.109,9.308 13.282,2.949 21.547,9.481 23.7,23.238 0.445,2.864 2.203,5.524 3.359,8.25 12.793,-0.859 24.281,-6.179 35.836,-10.937 8.816,-3.641 18.906,-7.559 17.937,-19.641 -0.933,-11.59 -5.164,-21.879 -16.218,-28.3 -10.504,-6.122 -21.696,-11.008 -33.489,-12.239 -27.254,-2.832 -54.152,-9.383 -81.804,-8.332 -19.176,0.723 -37.868,-4.808 -57.176,-3.668 -54.301,3.16 -108.227,8.34 -160.727,23.508 -5.742,1.66 -11.425,3.551 -17.05,5.609 -15.102,5.512 -22.684,14.481 -22.786,26.762 -0.093,11.711 9.864,24.75 23,29.34 6.184,2.141 12.621,4.02 19.09,4.762 7.289,0.898 8.449,5.457 8.848,11.207"
         style="fill:#d5a7d9;fill-opacity:1;fill-rule:evenodd;stroke:none"
         id="path194" />
      <path
         d="m 730.004,1049.94 c -22.227,-0.02 -44.805,2.43 -66.598,-0.67 -33.992,-4.84 -68.39,0.84 -102.082,-6.11 -1.754,-0.35 -3.597,-0.24 -5.394,-0.27 -61.758,-0.97 -123.426,-6.05 -185.254,-3.76 -2.61,10.59 -5.461,21.11 -6.121,32.07 1.285,3.42 2.629,6.83 6.976,7.22 2.391,0.21 4.793,0.47 7.184,0.36 55.765,-2.32 111.32,3.63 167.047,4.2 44.851,0.47 89.75,2.72 134.633,3.83 14.761,0.37 29.699,2.69 44.66,2.82 5.652,0.06 11.015,-0.12 12.523,-7.17 -0.969,-11.2 -3.164,-22.1 -7.574,-32.52"
         style="fill:#c6672c;fill-opacity:1;fill-rule:evenodd;stroke:none"
         id="path196" />
      <path
         d="m 382.75,984.602 c 3.207,1.628 6.918,2.687 9.535,4.988 16.469,14.41 32.758,11.65 49.176,0.121 0.984,-0.699 2.019,-1.352 2.859,-2.172 10.391,-10.258 20.184,-9.078 31.325,-0.25 15.695,12.441 32.582,11.5 47.933,-0.73 11.035,-8.77 20.942,-9.918 31.754,-0.571 1.324,1.153 3.398,1.461 4.668,2.653 16.684,15.649 32.043,9.98 48.074,-1.801 16.02,-11.77 16.883,-11.481 32.27,1.219 29.707,24.521 24.211,21.281 59.129,10 6.09,-1.969 13.195,-2.731 16.586,-9.571 -0.164,-7.578 -2.575,-14.609 -5.02,-21.648 -9.824,0.449 -18.488,4.621 -27.191,8.558 -9.352,4.262 -17.188,2.782 -24.356,-4.75 -4.929,-5.156 -10.293,-10.078 -16.074,-14.238 -14.664,-10.57 -26.039,-12.211 -38.828,-0.148 -15.613,14.738 -28.246,14.34 -44.656,2.047 -13.211,-9.887 -28.262,-8.52 -41.633,1.863 -12.125,9.437 -24.231,11.887 -37.238,1.578 -3.219,-2.551 -7.418,-3.852 -11.141,-5.789 -8.66,-4.5 -17.063,-5.211 -25.094,1.461 -1.367,1.148 -3.09,1.848 -4.578,2.84 -25.699,17.097 -20.875,19.5 -52.953,3.347 -4.625,6.321 -3.973,13.801 -4.547,20.993"
         style="fill:#c7682c;fill-opacity:1;fill-rule:evenodd;stroke:none"
         id="path198" />
      <path
         d="m 2514.86,2419.78 c 40.24,0.17 80.47,0.07 120.73,0.05 25.81,0 51.64,-0.04 77.46,0.01 31.26,0.06 36.46,5.79 33.99,37.13 -1.84,9.44 5.41,11.47 11.65,14.32 7.14,33.92 14.31,67.84 21.45,101.76 10.2,48.57 20.27,97.18 30.65,145.72 20.12,94.14 40.39,188.26 60.67,282.36 11.86,54.95 23.85,109.87 35.84,164.79 2.9,13.26 6.67,15.71 21.35,16.39 139.33,6.57 278.76,0.79 418.1,4 215.12,4.95 430.24,2.08 645.35,3.2 34.83,0.18 36.55,-1.43 29.42,-35.98 -10.64,-51.55 -22.43,-102.86 -33.55,-154.3 -14.12,-65.46 -27.98,-130.98 -42.16,-196.43 -11.14,-51.44 -22.47,-102.84 -33.95,-154.2 -14.24,-63.63 -28.59,-127.24 -43.27,-190.77 -2.37,-10.2 -1.24,-20.32 -2.03,-30.45 -1.07,-13.79 -4.01,-16.63 -17.57,-17.06 -4.79,-0.13 -9.61,-0.03 -14.42,-0.03 -353.49,0 -707,0.02 -1060.5,0 -88.37,-0.01 -176.77,-0.16 -265.13,-0.24 -4.21,0 -8.42,0.23 -12.62,0.01"
         style="fill:#c29fd6;fill-opacity:1;fill-rule:evenodd;stroke:none"
         id="path200" />
      <path
         d="m 3195.81,1139.8 c -13.32,3.99 -16.17,15.18 -17.73,26.73 -3.63,26.78 -8.34,53.52 -9.81,80.44 -3.09,57.13 -12.97,113.32 -20.36,169.89 -6.9,52.98 -14.1,105.95 -20.4,159.02 -5.53,46.6 -16.29,92.25 -23.71,138.49 -3.25,20.16 -6.41,40.33 -9.38,60.52 -0.72,4.92 -2.39,6.39 -6.73,3.38 -6.7,20.47 -7.9,42.07 -13.11,62.88 -7.59,30.28 -14.97,60.56 -24.33,90.35 -3.64,11.55 -10.05,17.14 -22.69,19.13 -31.09,4.92 -62.39,0.57 -93.44,3.96 -40.69,3.24 -81.43,5.35 -122.09,8.99 -10.79,0.97 -21.29,3.24 -31.98,4.49 -24.08,-2.33 -47.95,2.14 -71.83,3.52 -83.92,4.86 -167.9,5.51 -251.87,7.73 -43.8,1.16 -87.66,0.34 -131.36,2.84 -67.68,3.87 -135.49,3.65 -203.14,9.16 -39.78,3.26 -78.95,6.12 -116.01,21.93 -32.45,13.86 -61.44,32.7 -84.9,59.4 -42.42,49.64 -56.36,106.59 -39.93,169.54 16.08,61.63 35.62,122.25 68.93,177.33 5.2,8.6 8.72,18.69 18.86,23.44 25.03,4.69 50.26,2.97 75.34,1.61 77.32,-4.23 154.58,-4.49 231.87,0.16 10.19,0.62 20.37,1.16 30.55,-0.04 7.71,-0.92 13.93,-3.76 14.94,-12.67 1.86,-6.96 2.8,-14.33 5.74,-20.79 15.86,-34.96 30.16,-70.71 51.12,-103.18 10.23,-15.84 24.97,-27.52 36.96,-41.72 3.99,-4.75 9.34,-4.71 14.82,-4.82 76.95,-1.44 153.22,-12.82 230.05,-16.14 51.64,-2.25 103.01,-7.58 154.45,-12.39 49,-4.56 97.97,-9.66 146.89,-15.17 45.9,-5.16 91.78,-10.85 137.59,-16.91 21.4,-2.83 42.72,-6.6 63.88,-10.85 47.15,-9.47 76.64,-37.54 92.72,-83.25 12.34,-35 12.52,-70.81 14.74,-106.58 3.75,-61.17 4.2,-122.56 9.19,-183.6 6.11,-74.9 9.63,-149.83 12.24,-224.89 1.63,-46.33 -1.9,-92.52 -1.57,-138.8 0.63,-82.34 0.06,-164.69 -0.1,-247.03 -0.01,-9.6 -0.44,-19.23 -0.58,-28.85 -0.13,-9.59 -3.18,-17.66 -11.55,-23.07 -6.82,-12.48 -19.19,-16.47 -31.59,-17.93 -16.9,-2 -34.45,-5.92 -50.69,3.75"
         style="fill:#b72766;fill-opacity:1;fill-rule:evenodd;stroke:none"
         id="path202" />
      <path
         d="m 2903.24,894.699 c 6.14,-5.711 13.74,-3.308 20.7,-3.328 159.33,-0.199 318.71,2.66 477.94,-1.031 203.73,-4.692 407.47,1.601 611.08,-3.578 168.86,-4.321 337.67,0.109 506.45,-3.473 37.74,-0.777 75.6,-0.957 113.23,-3.559 20.97,-1.441 43.02,-3.242 61.16,-17.699 16.35,-13.043 22.86,-34.57 16.78,-54.301 -10.49,-33.941 -33.55,-52.941 -67.45,-60.031 -20.49,-4.269 -41.09,-6.937 -62.11,-8.429 -78.61,-5.622 -157.39,-5.348 -235.84,-2.29 -108.74,4.239 -217.52,-1.41 -326.09,3.45 -105.75,4.75 -211.51,-1.25 -317.08,3.531 -108.13,4.91 -216.31,-1.18 -324.28,3.699 -102.12,4.602 -204.29,-1.289 -306.24,3.57 -99.73,4.762 -199.5,-1.218 -299.02,3.579 -99.14,4.812 -198.29,-1.188 -297.23,3.652 -96.72,4.711 -193.48,-1.199 -290.01,3.598 -88.91,4.421 -177.86,-1.129 -266.55,3.722 -67.3,3.649 -134.62,4.649 -201.64,1.821 -98.54,-4.192 -196.99,-0.86 -295.46,-2.543 -10.17,-0.18 -20.24,-0.161 -30.4,2.461 -6.78,1.742 -14.45,1.511 -21.51,0.562 -48.48,-6.621 -97.26,-3.703 -145.71,-2.031 -26.9,0.898 -53.87,2.16 -80.81,2.34 -38.44,0.238 -76.53,4.218 -114.05,11.73 -23.78,4.731 -44.983,16.32 -61.428,35.25 -21.609,24.859 -16.18,55.629 13.07,70.559 23.298,11.902 48.978,15.179 74.318,19.75 25,4.511 50.34,5.199 75.31,3.07 31.59,-2.648 63.47,-0.578 94.83,-6.441 5.24,-0.95 10.8,-0.297 16.21,-0.297 76.35,-0.043 152.78,1.968 229.03,-0.801 57.03,-2.051 114,-2.141 171,-2.66 5.81,-0.051 11.91,-1.571 17.45,1.57 1.42,5.418 -2.35,9.258 -3.8,13.711 -8.89,26.867 -3.85,34.059 18.51,49.508 19.92,13.762 43.79,15.512 66.98,17.808 12.48,1.223 25.2,0 37.81,-0.109 1.28,-8.699 -5.54,-14.18 -8.54,-21.16 -14.58,-33.957 6.81,-68.328 41.8,-66.809 23.28,1.012 38.39,18.918 40.41,44.391 1.01,12.988 -8.95,25.328 -1.21,38.269 5.29,3.692 11.25,3.622 17.33,3.411 62.92,-2.153 125.9,-3.332 188.76,-6.231 63.47,-2.93 127.01,-4.449 190.37,-9.578 17.99,-1.461 36.02,-0.043 54,-1.113 9.73,-0.59 19.81,-1.399 21.21,-14.469 -0.27,-9.371 -7.03,-16.289 -9.66,-24.859 -6.19,-20.141 -1.3,-41.911 12.48,-52.782 13.18,-10.379 30.61,-11.718 43.7,-3.359 13.85,8.852 22.8,32.48 18.7,49.379 -1.27,5.301 -3.88,10.043 -6,15.031 -3.92,12.77 -5.6,25.078 7.36,34.231 23.1,2.32 43.85,-5.032 63.36,-16.313 10.91,-6.316 18.34,-16.367 19.24,-29.027 1.12,-16.012 9.85,-19.281 23.9,-19.199 64.91,0.347 129.84,0.207 194.76,0.148 51.64,-0.07 103.31,1.371 154.82,-3.512 3.47,0.883 7.34,1.371 10.44,-0.277 15.55,-8.289 31.45,-7.563 47.62,-2.512"
         style="fill:#d5a7d9;fill-opacity:1;fill-rule:evenodd;stroke:none"
         id="path204" />
      <path
         d="m 1965.39,2439.18 c -2.38,-13.49 -11.48,-23.71 -18.08,-34.87 -13.23,-22.37 -23.12,-46.18 -31.76,-70.32 -13.91,-38.84 -27.55,-77.89 -35.14,-118.69 -1.01,-5.37 -2.47,-10.77 -1.54,-15.98 3.31,-18.79 3.43,-37.99 8.83,-56.55 7,-24.02 18.63,-45.3 34.23,-64.62 -6.39,-11.8 -19.08,-11.5 -29.57,-14.61 -57.09,-16.93 -114.12,-33.9 -168.07,-59.57 -26.06,-12.37 -51.83,-25.28 -75.19,-42.57 -14.16,-10.47 -18.61,-8.86 -23.91,8.38 -9.01,29.31 -16.86,58.95 -22.52,89.12 -11.76,62.65 -25.05,124.92 -41.88,186.44 -28.88,105.58 -49.61,213.07 -73.35,319.85 -35.61,160.16 -67.94,321.05 -101.85,481.59 -10.55,49.94 -24.11,99.26 -42.69,147.05 -8.32,21.38 -22.51,39.58 -30.97,60.77 10.9,5.97 23.09,5.56 34.79,6.07 70,3.1 140.02,5.78 210.04,8.35 70.62,2.6 141.25,4.9 211.87,7.33 8.8,-4.39 7.54,-12.91 7.84,-20.37 0.73,-17.99 0.38,-36.01 0.28,-54.02 -0.06,-12.29 5.44,-16.92 17.45,-17.04 54.62,-0.55 109.05,5.98 163.69,3.91 11.9,-0.45 15.24,6.35 15.56,17 0.4,13.72 -1.9,27.66 2.61,41.11 2.04,4.56 5.95,6.48 10.09,4.18 23.23,-12.93 49.89,-18.59 71.99,-33.95 5.72,-13.8 2.41,-28.11 2.42,-42.22 -4,-31.01 -26.87,-46.79 -50.86,-60.5 -22.21,-12.7 -45.42,-23.8 -68.86,-34.25 -48.76,-16.55 -81.88,-50.16 -104.52,-95.4 -24.73,-49.38 -37.55,-101.94 -42.49,-156.65 -1.1,-12.16 1.16,-23.85 6.2,-35.01 5.3,-21.23 4.78,-42.44 3.22,-64.26 -3.16,-44.27 -3.05,-88.78 -0.01,-133.08 1.72,-25.1 2.71,-50.27 5.68,-75.32 1.73,-14.53 5.19,-28.35 11.89,-41.23 8.68,-16.69 22.09,-26.51 41.56,-26.73 26.39,-0.32 52.53,-5.13 79.02,-4.16 8.9,0.32 18.27,-0.24 24,-9.18"
         style="fill:#c5553d;fill-opacity:1;fill-rule:evenodd;stroke:none"
         id="path206" />
      <path
         d="m 1980.44,3249.5 c 0.07,-18.59 -0.04,-37.2 0.3,-55.78 0.16,-8.31 -2.89,-12.2 -11.57,-11.67 -7.77,0.49 -15.6,0.04 -23.38,0.31 -49.24,1.7 -98.26,-3.93 -147.43,-4.12 -4.81,-0.02 -9.61,-0.2 -14.4,-0.02 -12.3,0.44 -12.56,0.64 -12.81,13.69 -0.45,23.99 -0.66,47.99 -1.13,71.98 -0.08,4.17 -0.9,8.31 -1.39,12.46 0.03,40.32 -3.16,80.47 -6.94,120.55 -5.52,58.71 -9.3,117.48 -5.9,176.44 4.99,86.4 30.3,166.47 78.17,238.73 23.39,35.32 52.54,65.6 87.92,89.49 41.45,27.98 86.96,45.56 135.93,55.27 84.6,16.76 167.48,11.07 248.4,-18.49 75.54,-27.58 131.4,-78.84 170.49,-148.22 44.84,-79.57 65.07,-166.24 69.49,-256.9 3.28,-66.91 -2.84,-133.36 -12.08,-199.51 -6.06,-43.51 -10.72,-87.06 -11.1,-131.03 -0.14,-15.76 -0.51,-15.91 -16.05,-16.01 -67.35,-0.41 -134.67,2.35 -202,0 -13.36,-0.47 -13.35,0 -13.16,14.42 0.19,14.42 0.3,28.83 0.45,43.25 0.12,8.6 6.78,12.3 12.66,16.2 35.61,23.57 64.06,53.91 86.53,90.1 4.68,7.55 8.81,16.23 20.06,15.44 18.6,-2.3 23.92,0.67 29.08,17.67 6.94,22.93 9.82,46.52 10.03,70.44 0.05,7.17 -0.19,14.36 2.07,21.32 11.08,24.64 10.57,50.37 5.63,75.95 -4.85,25.06 -14.55,31.36 -39.46,26.06 -55.46,-11.79 -111.41,-16.58 -168.09,-15.23 -19.87,0.47 -39.42,3.47 -59.18,4.54 -14.13,0.75 -22.59,9.11 -28.44,21.56 -6.23,13.26 -10.17,27.79 -19.67,41.12 -8.37,-9.01 -11.77,-18.68 -15.7,-27.8 -7.42,-17.22 -20.26,-26.07 -38.66,-27.84 -73.4,-7.06 -146.64,-16.49 -220.69,-8.58 -22.12,2.36 -36.18,-7.86 -41.83,-31.04 -7.3,-29.94 -6.06,-59.57 11.19,-86.71 4.75,-12.74 2.49,-26.01 2.6,-39.05 0.15,-17.34 0.71,-34.53 5.73,-51.29 7.83,-26.09 14.34,-28.72 36.8,-14.71 7.27,1.54 10.91,-3.55 14.46,-8.31 20.78,-27.95 45.73,-51.65 73.52,-72.49 4.19,-3.13 9.16,-5.93 9.55,-12.19"
         style="fill:#283976;fill-opacity:1;fill-rule:evenodd;stroke:none"
         id="path208" />
      <path
         d="m 1796.81,2794.84 c -6.63,4.37 -9.32,10.44 -8.86,18.42 0.63,10.79 -0.68,21.88 1.23,32.39 9.75,53.25 20.83,106.16 48.6,153.77 22.17,38.04 52.22,67.11 93.68,83.39 2.74,1.07 5.79,1.37 8.7,2.03 5.5,-1.91 8.41,-6.37 11.28,-11.04 38.5,-62.65 98.88,-86.19 168.08,-91.55 80.18,-6.21 151.05,19.14 213.81,68.56 4.22,3.32 8.28,7.14 14.4,5.69 2.2,-0.94 4.77,-1.43 6.54,-2.87 46.86,-38.39 80.7,-85.25 94.19,-145.27 7.5,-33.44 13.89,-67 10.52,-101.58 -1.49,-8.5 -7.22,-13.13 -14.5,-16.84 -14.45,-7.36 -29.22,-14.95 -45.3,-16.29 -22.48,-1.9 -31.91,-13.13 -34.64,-34.77 -1.58,-12.47 -2.48,-26.47 -13.2,-36.17 -9.92,-24.55 -14.21,-50.61 -19.85,-76.24 -7.85,-35.71 -14.18,-71.75 -16.43,-108.36 -3.33,-3.17 -7.52,-3.85 -11.71,-3.17 -51.17,8.59 -102.72,3.64 -154.06,3.98 -53.32,0.36 -106.28,5.11 -159.37,8.54 -10.06,0.66 -20.32,1.66 -29.79,5.86 -7.69,4.88 -7.49,13.19 -8.43,20.72 -5.21,41.48 -7.58,83.41 -19.62,123.81 -8.01,26.89 -15.37,53.99 -26.25,79.89 -5.66,6.34 -13.41,7.1 -21.16,8.1 -21.29,2.78 -42.38,6.77 -62.87,13.28 -9.57,3.04 -19.68,5.71 -24.99,15.72"
         style="fill:#9156b1;fill-opacity:1;fill-rule:evenodd;stroke:none"
         id="path210" />
      <path
         d="m 1311.93,3254.6 c 11.15,-6.34 15.76,-17.79 21.48,-28.18 21.02,-38.16 32,-79.93 43.58,-121.52 12.2,-43.82 23.04,-88.03 30.66,-132.76 10.76,-63.07 25.65,-125.21 38.47,-187.8 14.29,-69.64 29.74,-139.05 44.87,-208.52 17.41,-79.98 35.16,-159.91 52.49,-239.92 10.64,-49.15 26.01,-97.06 37.56,-145.97 10.42,-44.17 19.28,-88.68 27.58,-133.35 6.19,-33.29 15.28,-66.11 26.06,-98.69 65.76,48.77 140.29,76.06 216.82,98.93 23.5,7.01 46.95,14.22 70.43,21.33 16.2,-12.28 29.41,-27.86 47.09,-38.75 41.85,-25.76 86.62,-39.33 135.79,-40.93 28.61,-0.92 57.37,-1.97 85.83,-6.15 5.89,-0.86 11.99,-0.55 17.99,-0.55 73.2,-0.02 146.4,-2.77 219.52,-4.9 53.39,-1.55 106.83,0.42 160.07,-3 28.74,-1.84 57.6,-1 86.12,-3.83 19.78,-1.95 39.48,-1.85 59.18,-3.02 16.09,-0.99 32.02,-4.4 48.26,-3.96 2.05,-2.57 3.45,-5.42 3.75,-8.74 0.83,-10.76 -0.3,-21.56 1.05,-32.3 -3.91,-53.58 -37.8,-86.93 -91.21,-90.77 -30.72,-2.2 -61.06,3.45 -91.68,3.39 -82.85,-0.13 -165.7,-0.32 -248.55,0.06 -61.78,0.28 -123.48,4.81 -185.3,4.23 -59.15,-2.07 -118.31,-0.62 -177.45,-0.82 -7.47,-0.04 -13.89,3.1 -20.49,5.87 -76.34,0.28 -152.69,1.62 -228.93,5.32 -27,1.31 -54.07,1.55 -81.01,3.78 -38.92,3.21 -56.59,5.6 -68.21,56.45 -14.32,62.64 -29.23,125.15 -43.43,187.81 -73.19,323.35 -142.48,647.55 -213.09,971.47 -11.14,51.05 -21.91,102.18 -32.96,153.24 -1.98,9.19 -3.93,18.1 7.66,22.55"
         style="fill:#92493a;fill-opacity:1;fill-rule:evenodd;stroke:none"
         id="path212" />
      <path
         d="m 1835.3,3444.99 c -22.03,27.99 -25.66,76.55 -8.54,107.05 9.33,16.61 24.25,21.02 41.33,19.22 21.58,-2.28 43.17,-2.09 64.79,-2.42 54.78,-0.85 109,6.39 163.37,11.6 12.17,1.17 19.79,7.23 24.16,18.39 6.1,15.64 13.36,30.7 23.19,45.41 7.27,-8.36 9.06,-18.03 13.05,-26.57 4.58,-9.78 8.98,-19.7 12.52,-29.88 3.73,-10.76 11.29,-14.3 21.85,-15.28 77.6,-7.23 154.84,-6.55 230.96,12.06 22.06,5.39 33.02,-2.24 39.83,-22.12 7.8,-22.77 8.2,-45.99 3.29,-69.32 -1.45,-6.88 -2.72,-14.29 -9.12,-19 -6,-0.64 -6.14,3.74 -6.69,7.79 -1.03,-6.48 1.91,-13.59 -2.92,-19.52 -7.14,-4.75 -8.49,-12.47 -9.85,-19.98 -4.09,-22.81 -11.63,-44.58 -19.53,-66.26 -2.05,-4.79 -5.01,-9 -8.5,-12.85 -4.93,-0.53 -6.74,-4.49 -8.81,-8.1 -24.84,-43.41 -58.38,-78.45 -100.79,-105 -2.47,-1.56 -4.44,-3.91 -6.64,-5.88 -24.69,-9.88 -49.39,-19.76 -74.08,-29.64 -9.36,-9.04 -21.71,-9.69 -33.4,-10.95 -35.09,-3.77 -70.24,-4.37 -105.26,1.37 -9.67,1.57 -18.68,4.18 -24.58,12.84 -26.79,5.93 -50.89,18.2 -74.51,31.57 -34.21,22.71 -64.24,49.84 -88,83.6 -2.03,2.9 -4.72,5.32 -7.12,7.95 -5.26,2.11 -7.97,6.61 -10.59,11.21 -9.91,18.63 -15.63,38.81 -21.5,58.93 -2.36,8.06 -4.65,16.14 -11.58,21.75 -4.07,2.98 1.05,10.79 -6.33,12.03"
         style="fill:#f9b397;fill-opacity:1;fill-rule:evenodd;stroke:none"
         id="path214" />
      <path
         d="m 2318.92,942.512 c 0.71,8.199 -0.85,14.508 -11.25,13.539 -1.19,-0.11 -2.4,0.051 -3.59,0 -43.15,-1.84 -86.11,2.918 -129.12,4.551 -59.12,2.207 -118.27,4.648 -177.36,7.457 -33.5,1.582 -66.95,1.429 -100.41,2.652 -10.15,0.371 -20.26,-0.031 -30.32,2.59 -5.52,1.429 -11.95,2.32 -17.06,-2.403 -1.05,-20.328 -6.03,-25.937 -24.35,-27.468 -26.22,-2.2 -38.87,4.929 -42.72,23.992 -0.95,4.68 -0.62,9.469 -1.32,14.168 4.01,3.64 6.75,7.41 7.63,13.441 1.44,9.979 2.66,20.159 6.56,29.729 6.06,14.88 15.72,22.53 32.9,22.25 54.03,-0.91 108.08,-0.69 162.12,-0.91 3,-0.01 6,-0.06 9,-0.06 19.73,-0.03 19.81,-0.03 19.85,19.59 0.2,105.06 -1.58,210.2 1,315.23 2.93,119.43 0.97,238.87 3.35,358.28 0.37,19.12 2.83,38.22 2.52,57.44 9.28,9.15 21.12,6.48 31.99,6.14 20.04,-0.62 39.95,-4.81 60.15,-1.35 4.67,0.81 9.43,-0.58 13.13,-4.12 -6.89,-20.57 -1.97,-41.35 -1.82,-62.18 1.1,-154.46 2.71,-308.98 -0.54,-463.39 -1.44,-68.49 -1.22,-136.95 -2.31,-205.41 -0.37,-23.15 1.12,-23.37 24.61,-24.47 61.19,-2.86 122.22,-8.22 183.09,-15.12 22.1,-2.5 42.1,-10.57 52.7,-32.68 2.23,-9.211 1.96,-18.5 0.57,-27.828 -0.22,-0.992 -0.46,-1.992 -0.69,-2.992 -2.4,-10.559 -6.22,-21.168 0.11,-31.719 -4.54,-22.621 -19.36,-29.621 -48.32,-22.852 -18.88,4.422 -25.24,15.141 -20.1,33.903"
         style="fill:#abaaa9;fill-opacity:1;fill-rule:evenodd;stroke:none"
         id="path216" />
      <path
         d="m 2935.56,1959.16 c 20.96,0 41.99,-0.52 62.94,0.17 14.53,0.46 28.26,-5.03 42.77,-4.16 6.43,0.39 8.64,-4.85 10.55,-10.36 11.53,-33.37 20.37,-67.49 28.21,-101.87 2.78,-12.21 4.01,-24.86 7.93,-36.68 3.24,-9.81 1.69,-18.69 -0.27,-27.99 -15.06,-53.71 -33.64,-106.23 -53.22,-158.44 -34.26,-91.52 -72.59,-181.52 -103.75,-274.2 -20.63,-61.35 -39.56,-123.31 -59.59,-184.86 -5.19,-15.96 -11.86,-31.41 -17.53,-47.21 -3.4,-9.55 -8.82,-16.86 -18.78,-20.14 -27.27,-3.92 -51.41,2.3 -71.42,21.99 -3.96,9.38 -2.43,18.93 -0.39,28.33 46.09,213 80.91,428.35 134.44,639.79 11.36,44.81 20.66,90.12 30.27,135.35 4.38,10.49 2.31,21.64 3.37,32.48 0.61,3.1 1.76,5.9 4.47,7.8"
         style="fill:#972554;fill-opacity:1;fill-rule:evenodd;stroke:none"
         id="path218" />
      <path
         d="m 1796.81,2794.84 c 29.26,-14.32 60.73,-20 92.65,-24.19 7.23,-0.95 15.88,0.9 20.28,-7.78 11.83,-61.44 7.33,-123.86 10.9,-185.79 1.39,-24.12 0.26,-30.26 24.96,-32.29 5.01,-0.42 8.59,-3.97 12.33,-6.95 35.14,-4.41 70.43,-6.78 105.78,-9.16 68.45,-4.65 136.92,-3.91 205.39,-2.78 16.04,0.27 30.55,-5.87 45.96,-7.79 19.18,-10.21 35.75,-23.68 49.78,-40.24 3.08,-3.63 6.48,-7.18 8.7,-11.33 8.76,-16.41 2.89,-26.57 -15.73,-27.45 -8.38,-0.4 -16.76,-0.41 -25.14,-0.3 -5.3,0.07 -9.42,-1.28 -11.17,-6.78 -2.58,4.17 -5.31,7.59 -11.19,7.23 -14.31,-0.87 -28.81,1.52 -42.97,-2.28 -7.07,-1.87 -14.28,-1.65 -21.46,-1.63 -59.98,0.24 -120.01,-0.81 -179.91,1.37 -33.53,1.22 -67.01,3.05 -100.58,2.48 -7.59,1.86 -15.25,3.5 -23.12,3.09 -28.27,-1.47 -56.13,4.87 -84.38,4.08 -19.91,-0.57 -31.86,12.07 -41.29,27.37 -7.32,11.85 -11.5,25.19 -13.08,38.99 -8.1,70.54 -8.62,141.43 -6.55,212.2 0.7,23.4 -0.14,46.62 -0.16,69.93"
         style="fill:#fab89e;fill-opacity:1;fill-rule:evenodd;stroke:none"
         id="path220" />
      <path
         d="m 2347.73,3056.5 c -48.54,-43.98 -105.82,-70.79 -170.23,-78.67 -68.56,-8.4 -133.88,3.22 -190.59,46.65 -20.9,16.02 -36.52,36.1 -46.75,60.36 21.38,10.74 42.81,21.38 64.13,32.25 15.08,7.7 28.16,18.12 39.59,30.55 6.18,6.74 10.21,14.7 12.03,23.7 1.06,8.66 3.85,14.79 14.62,11.92 48.71,-12.99 96.75,-9.96 144.18,6.43 2.26,0.78 4.73,0.31 7.1,-0.02 5.84,-8.23 3.14,-18.39 6.52,-27.52 8.7,-23.46 24.08,-41.19 43.68,-55.49 15.91,-11.62 32.46,-22.33 50.22,-31.17 9.48,-4.72 19.68,-9.09 25.5,-18.99"
         style="fill:#fab89e;fill-opacity:1;fill-rule:evenodd;stroke:none"
         id="path222" />
      <path
         d="m 2351.34,2702.71 c 4.59,20.47 9.52,40.88 13.6,61.46 1.42,7.14 4.4,9.79 11.61,10.73 22.7,2.99 44.82,8.29 65.37,19.01 6.49,3.38 12.4,7.22 17.07,12.88 0.14,-62.41 0.4,-124.81 0.31,-187.21 -0.03,-7.69 -2.49,-15.35 -3.01,-23.08 -1.02,-15.35 -0.77,-15.64 13.67,-20.57 24.94,-8.52 50.04,-16.57 74.92,-25.21 71.85,-24.94 142.9,-52.01 213.81,-79.43 0.69,-7.83 -7.07,-6.56 -10.6,-9.84 -5.39,-7.29 -13.56,-7.13 -21.2,-7.09 -57.95,0.31 -115.82,5.15 -173.82,3.78 -11.43,0.73 -50.68,2.62 -67.93,7.29 -28.94,4.97 -56.96,15.61 -84.61,24.94 -34.71,11.75 -50.71,39.58 -52.3,74.2 -1.58,33.97 -2.65,68.19 2.41,102.21 1.74,11.75 0.55,23.94 0.7,35.93"
         style="fill:#fab89e;fill-opacity:1;fill-rule:evenodd;stroke:none"
         id="path224" />
      <path
         d="m 3195.81,1139.8 c 6.48,-0.01 13,0.34 19.44,-0.09 22.4,-1.42 43.38,2.99 62.84,14.27 -0.89,-16.28 3.63,-32.04 4.72,-48.14 0.97,-14.43 9.85,-24.66 18.91,-35.44 20.72,-24.7 39.91,-50.68 59.72,-76.13 5.29,-7.758 3.73,-14.872 -2.49,-21.032 -7.36,-7.289 -16.17,-7.5 -24.94,-3.218 -47.35,23.16 -94.9,46.06 -130.47,86.96 -0.32,27.81 -5.11,55.23 -7.73,82.82"
         style="fill:#fab89e;fill-opacity:1;fill-rule:evenodd;stroke:none"
         id="path226" />
      <path
         d="m 2903.24,894.699 c -13.54,-12.84 -21.09,-14 -38.19,-6.961 -5.32,2.192 -9.39,7.512 -15.96,6.653 -24.79,8.898 -42.68,27.769 -62.65,43.578 -6.08,4.801 -11.28,10.73 -16.6,16.402 -7.51,8.02 -14.91,14.52 -27.57,13.508 -10.59,-0.828 -20.07,6.082 -19.43,16.941 1.72,29.27 8.28,57.5 27.18,81.31 12.25,0.64 15.59,-9.33 20.34,-17.39 22.35,-37.8 56.01,-64.49 90.94,-95.099 0.53,13.781 -4.9,21.82 -7.86,30.55 -3.91,11.59 -13.29,21.669 -10.05,35.289 4.68,-1.83 7.58,-5.64 10.65,-9.33 18.87,-22.728 33.83,-47.951 47.53,-74.009 7.2,-13.68 8.1,-27.332 1.67,-41.442"
         style="fill:#283976;fill-opacity:1;fill-rule:evenodd;stroke:none"
         id="path228" />
      <path
         d="m 3203.54,1056.98 c 7.38,2.1 11.12,-3.34 14.92,-7.73 21.72,-25.15 50.84,-39.49 79.29,-54.77 11.61,-6.218 23.36,-12.191 35.19,-18.039 18.63,-9.203 24.08,-6.351 27.86,14.258 0.22,1.18 0.43,2.371 0.64,3.551 10.14,-7.648 17.94,-17.539 25.84,-27.32 3.82,-4.758 6.2,-10.16 7.19,-16.25 3.7,-23.231 -10.29,-37.821 -33.46,-33.598 -24.3,4.418 -46.93,14.379 -69.62,23.727 -19.47,8.043 -37.57,18.57 -54.76,30.742 -4.08,2.871 -8.03,6.058 -11.62,-0.75 -4.51,-8.571 -11.24,-4.059 -17.3,-2.551 -6.91,1.73 -9.43,6.68 -9.29,13.469 0.48,25.171 -0.78,50.461 5.12,75.261"
         style="fill:#283976;fill-opacity:1;fill-rule:evenodd;stroke:none"
         id="path230" />
      <path
         d="m 2131.57,1796.29 c -5.39,1.22 -10.73,0.81 -16,-0.57 -13.61,-3.51 -27.06,-2.66 -40.82,-0.26 -15.97,2.8 -32.24,1.21 -48.4,1.12 -6.45,1.12 -12.89,2.37 -19.37,3.33 -23.23,3.51 -34.2,16.74 -33.05,40.62 0.23,4.75 1.86,9.44 -2.03,13.45 66.66,0.32 133.32,1.3 199.98,-0.17 9.14,-22.04 2.74,-46.36 -15.3,-56.72 -8.01,-4.59 -16.46,-7.71 -25.01,-0.8"
         style="fill:#7b7c7d;fill-opacity:1;fill-rule:evenodd;stroke:none"
         id="path232" />
      <path
         d="m 2843.39,1019.48 c 6.91,-15.86 13.91,-31.66 20.68,-47.57 1.85,-4.379 3.2,-9.019 4.34,-13.64 0.87,-3.559 0.65,-7.258 -2.89,-9.571 -3.82,-2.488 -6.64,-0.238 -9.44,2.262 -11.15,9.91 -22.9,19.25 -33.45,29.738 -22.37,22.281 -47.03,42.741 -60.17,72.741 -2.17,4.92 -5.32,9.41 -10.96,11.2 -3.28,19.46 3.98,35.61 15.75,50.37 15.2,-10.22 32.43,-14.74 50.22,-17.57 5.9,-0.94 11.92,-1.12 17.35,-4.02 -7.51,-25.84 1.24,-49.81 8.57,-73.94"
         style="fill:#fab89e;fill-opacity:1;fill-rule:evenodd;stroke:none"
         id="path234" />
      <path
         d="m 1781.42,981.59 c 7.94,-1.231 5.83,-7.512 6.35,-12.52 1.29,-12.468 4.95,-16.679 16.77,-19.441 1.15,-0.258 2.35,-0.359 3.52,-0.551 27.57,-4.238 31.46,-2.207 41.75,21.82 7.06,-12.457 9.48,-25.816 7.77,-39.957 -2.86,-23.562 -22.51,-42.972 -44.93,-44.441 -25.54,-1.691 -44.85,12.969 -50.83,38.691 -5.04,21.707 0.95,40.219 16.57,55.848 1.06,-0.109 2.08,0.07 3.03,0.551"
         style="fill:#293977;fill-opacity:1;fill-rule:evenodd;stroke:none"
         id="path236" />
      <path
         d="m 2221.81,3189.67 c -18.31,-12.84 -39.73,-15.46 -61.02,-18.08 -7.1,-0.88 -14.2,-0.82 -21.33,-2.58 -15.64,-3.86 -30.72,2.92 -46.18,3.91 -8.22,0.51 -16.65,2.68 -24.31,5.77 -8.53,3.46 -9.64,-3.31 -13.06,-7.35 -0.32,15.54 -0.65,31.08 -0.98,46.62 19.87,-7.11 40.39,-9.94 61.49,-10.6 34.21,-1.05 68.08,1.41 101.75,7.33 -0.91,-8.65 3.24,-16.57 3.64,-25.02"
         style="fill:#e39679;fill-opacity:1;fill-rule:evenodd;stroke:none"
         id="path238" />
      <path
         d="m 3408.67,2756.45 c -35.39,-5.19 -59,29.93 -58.48,61.57 0.59,36.89 27.83,63.67 65.4,64.12 31.37,0.37 59.65,-25.01 58.17,-63.69 -1.49,-39.04 -24.57,-62.11 -65.09,-62"
         style="fill:#e4cdea;fill-opacity:1;fill-rule:evenodd;stroke:none"
         id="path240" />
      <path
         d="m 2318.92,942.512 c 2.1,-9.614 0.35,-21.422 12.23,-25.934 13.62,-5.148 27.93,-6.387 42.13,-2.609 8.47,2.261 7.89,12.812 14.06,17.492 10.77,-17.789 8.84,-35.719 -0.34,-53.172 -7.54,-14.359 -19.97,-22.578 -36.34,-22.527 -16.64,0.058 -30.31,7.109 -38.99,21.82 -12.01,20.328 -8.96,46.359 7.25,64.93"
         style="fill:#293a78;fill-opacity:1;fill-rule:evenodd;stroke:none"
         id="path242" />
      <path
         d="m 2408.49,3363.31 c -2.59,4.34 -0.8,7.66 2.49,10.64 11.97,1.38 17.33,9.22 20.01,20.03 4.21,16.94 7.42,34.02 8.56,51.44 0.43,6.63 0.51,13.29 5.43,18.57 1.39,5.99 -1.89,12.92 3.67,18.2 5.79,0.29 3.47,-6.74 7.34,-8.06 -0.29,-26.95 -0.31,-53.91 -6.84,-80.32 -1.15,-4.64 -2.31,-9.3 -3.74,-13.86 -6.26,-19.96 -16.1,-24.36 -36.92,-16.64"
         style="fill:#f6f7f9;fill-opacity:1;fill-rule:evenodd;stroke:none"
         id="path244" />
      <path
         d="m 1835.3,3444.99 c 3.86,2.14 2.47,7.93 7.98,10.35 5.58,-6.92 -2.72,-14.53 0.49,-21.17 7.05,-14.34 3.61,-30.34 7.2,-45.28 1.93,-8.03 3.11,-16.3 4.65,-24.45 2.69,-14.19 9.37,-19.73 23.24,-12.4 3.96,-2.59 5.12,-6.83 6.45,-10.96 -1.13,-1.37 -2.18,-2.82 -3.42,-4.09 -14.13,-14.69 -27.16,-12.71 -36.29,5.78 -6.43,13.02 -8.38,27.2 -10,41.46 -2.3,20.26 0.77,40.52 -0.3,60.76"
         style="fill:#f8f9fb;fill-opacity:1;fill-rule:evenodd;stroke:none"
         id="path246" />
      <path
         d="m 1957.93,2537.84 c -10.08,1.2 -20.15,2.49 -30.24,3.59 -8.31,0.89 -13.67,4.26 -12.41,13.73 0.08,0.58 -0.02,1.19 -0.01,1.78 0.59,53.91 -5.99,107.61 -4.57,161.53 0.38,14.84 -6.35,29.48 -0.96,44.4 29.6,-72.11 45.48,-147.17 48.19,-225.03"
         style="fill:#c5543e;fill-opacity:1;fill-rule:evenodd;stroke:none"
         id="path248" />
      <path
         d="m 2781.15,1966.48 c 3.7,-10.93 3.51,-21.89 0.24,-32.89 -0.08,10.98 -0.16,21.94 -0.24,32.89"
         style="fill:#b72766;fill-opacity:1;fill-rule:evenodd;stroke:none"
         id="path250" />
      <path
         d="m 2154.73,3319.07 c -27.94,-2.53 -59.96,20.57 -68.67,43.47 -5.76,15.17 -3.43,18.24 12.24,16.6 31.02,-3.24 62.17,-1.39 93.26,-2.06 6.58,-0.14 13.23,0.26 19.74,-0.51 8.44,-0.98 10.54,-4.35 7.46,-12.1 -9.81,-24.75 -30.52,-47.33 -64.03,-45.4"
         style="fill:#ffffff;fill-opacity:1;fill-rule:evenodd;stroke:none"
         id="path252" />
      <path
         d="m 1878.86,3352.04 c -3.51,-5.43 -5.8,-13.98 -13.08,-13.37 -8.88,0.74 -10.98,9.91 -13.33,17.29 -8.11,25.47 -9.15,51.75 -8.69,78.2 7.48,0.34 10.79,-4.12 11.96,-10.68 4.46,-24.88 14.26,-48.01 23.14,-71.44"
         style="fill:#2e3d7c;fill-opacity:1;fill-rule:evenodd;stroke:none"
         id="path254" />
      <path
         d="m 2444.98,3463.99 c 1.27,-28.13 -3.2,-55.52 -11.4,-82.29 -4,-13.06 -8.02,-14.09 -22.6,-7.75 8.81,26.92 19.44,53.36 22.94,81.75 0.89,7.14 5.14,8.52 11.06,8.29"
         style="fill:#2d3c7b;fill-opacity:1;fill-rule:evenodd;stroke:none"
         id="path256" />
      <path
         d="m 2033.81,3439.26 c 0.08,-11.83 -8.68,-21.56 -19.3,-21.44 -10.09,0.11 -18.96,9.36 -19.05,19.9 -0.09,11.1 9.35,20.14 20.77,19.85 10.61,-0.27 17.5,-7.44 17.58,-18.31"
         style="fill:#2d3c7a;fill-opacity:1;fill-rule:evenodd;stroke:none"
         id="path258" />
      <path
         d="m 2276.2,3424.64 c -9.57,-0.29 -18.11,8.09 -18.3,17.97 -0.19,9.84 7.71,18.89 17.05,19.55 9.71,0.69 18.47,-7.14 19.08,-17.07 0.67,-10.64 -7.62,-20.14 -17.83,-20.45"
         style="fill:#2c3b79;fill-opacity:1;fill-rule:evenodd;stroke:none"
         id="path260" />
      <path
         d="m 2384.21,988.41 c 5.8,-7.801 2.25,-16.738 3.04,-25.148 -5.76,7.82 -2.42,16.707 -3.04,25.148"
         style="fill:#d5a7d9;fill-opacity:1;fill-rule:evenodd;stroke:none"
         id="path262" />
      <path
         d="m 2932.61,1919.63 c -0.17,11.11 -1.51,22.33 2.78,33.08 -0.05,-11.11 3.08,-22.48 -2.78,-33.08"
         style="fill:#b72766;fill-opacity:1;fill-rule:evenodd;stroke:none"
         id="path264" />
      <path
         d="m 2164.73,2357.16 c 5.15,-22.51 18.48,-42.72 35.98,-57.63 17.3,-14.74 37.63,-23.11 59.28,-29.26 44.2,-12.56 92.22,-19.06 138.08,-13.79 9.48,1.1 19.07,2.71 28.43,5.15 -4.16,0.23 -8.08,1.02 -11.18,4.7 -11.99,14.2 -26.73,25.88 -36.96,41.72 -20.96,32.47 -35.26,68.22 -51.12,103.18 -2.94,6.46 -3.88,13.83 -5.74,20.79 -1.01,8.91 -7.23,11.75 -14.94,12.67 -10.18,1.2 -20.36,0.66 -30.55,0.04 -27.42,-1.65 -54.83,-2.47 -82.25,-2.93 -5.92,-6.53 -11.39,-13.46 -16.22,-20.84 -12.53,-19.14 -17.99,-41.18 -12.81,-63.8"
         style="fill:#972554;fill-opacity:1;fill-rule:evenodd;stroke:none"
         id="path266" />
      <path
         d="m 1103.87,2443.15 c 6.57,0.28 13.17,0.81 19.75,0.81 1158.32,0.02 2316.64,0.04 3474.95,-0.02 26.59,0 22.45,3.39 22.77,-23 0.2,-17.42 0.13,-34.88 -0.03,-52.3 -0.06,-3.96 1.6,-8.53 -2.55,-11.69 -37.16,-3.15 -74.39,-1 -111.57,-1.34 -1053.53,-9.79 -2107.09,-2.01 -3160.62,-3.48 -77.28,-0.09 -154.72,3.06 -232.11,3.43 -6.11,0.02 -12.64,-0.75 -12.29,8.58 0.96,26.33 -2.01,52.74 1.7,79.01"
         style="fill:#283976;fill-opacity:1;fill-rule:evenodd;stroke:none"
         id="path268" />
      <path
         d="m 4059.69,2317.33 c 69.9,-191.73 139.84,-383.46 209.7,-575.21 62.29,-170.88 124.46,-341.82 186.75,-512.69 45.24,-124.07 90.62,-248.078 135.78,-372.168 2.17,-5.961 6.49,-11.68 3.82,-19.543 -17.06,-2.16 -34.43,-0.649 -51.73,-0.918 -7.29,-0.121 -8.03,5.578 -9.9,10.699 -13.78,37.77 -27.81,75.449 -41.58,113.211 -66.76,183.249 -133.47,366.529 -200.24,549.779 -64.49,177.03 -129.04,354.06 -193.59,531.08 -28.1,77.13 -56.26,154.23 -85.11,233.29 -10.49,-19.66 -15.95,-39.3 -22.88,-58.26 -81.59,-223.18 -162.98,-446.45 -244.27,-669.77 -69.4,-190.55 -138.59,-381.2 -207.92,-571.76 -15.19,-41.769 -31.05,-83.269 -45.7,-125.211 -3.65,-10.437 -8.8,-14.211 -19.43,-13.339 -14.85,1.218 -29.86,-1.29 -46.39,1.859 7.2,19.93 14.06,39.043 21.02,58.101 64.29,176.53 128.58,353.07 192.95,529.56 69.31,190.06 138.73,380.07 208.07,570.12 37.43,102.62 74.79,205.28 112.21,307.92 1.22,3.38 2.73,6.66 4.1,9.97 1.18,7.69 6.15,11.44 13.41,11.92 21.99,1.43 44,1.62 65.98,-0.2 6,-0.5 11.6,-2.72 14.95,-8.44"
         style="fill:#283976;fill-opacity:1;fill-rule:evenodd;stroke:none"
         id="path270" />
      <path
         d="m 1772.23,2317.33 c 64.96,-178.19 129.9,-356.4 194.84,-534.62 62.47,-171.45 124.91,-342.93 187.42,-514.35 49.98,-137.05 100.06,-274.051 149.97,-411.11 2.17,-5.969 6.53,-11.668 3.83,-19.531 -17.06,-2.16 -34.42,-0.649 -51.73,-0.918 -7.29,-0.121 -8.03,5.59 -9.89,10.699 -13.93,38.359 -28.07,76.629 -42.05,114.961 -66.6,182.689 -133.17,365.349 -199.77,548.039 -64.52,177.02 -129.05,354.05 -193.59,531.08 -28.12,77.12 -56.27,154.23 -85.11,233.25 -10.52,-19.62 -15.96,-39.27 -22.88,-58.21 -81.6,-223.19 -162.97,-446.47 -244.28,-669.77 -69.39,-190.57 -138.58,-381.21 -207.93,-571.78 -15.19,-41.769 -31.04,-83.269 -45.68,-125.211 -3.65,-10.461 -8.82,-14.211 -19.44,-13.339 -14.84,1.218 -29.87,-1.29 -46.38,1.859 7.2,19.93 14.05,39.043 20.99,58.101 64.31,176.53 128.6,353.07 192.98,529.56 76.09,208.66 152.29,417.27 228.41,625.91 30.65,84.05 61.21,168.1 91.85,252.13 1.23,3.39 2.74,6.66 4.12,9.97 1.06,6.66 4.9,11.08 11.59,11.56 23.65,1.73 47.35,2.84 70.92,-1.05 4.67,-0.77 9.02,-2.95 11.81,-7.23"
         style="fill:#283976;fill-opacity:1;fill-rule:evenodd;stroke:none"
         id="path272" />
      <path
         d="m 1772.23,2317.33 c -26.06,6.31 -52.58,2.81 -78.89,3.95 -6.84,0.3 -11.31,-2.65 -15.43,-7.23 -3.97,8.27 -11.59,4.78 -17.54,4.81 -56.47,0.28 -112.94,0.16 -169.43,0.16 -55.28,0 -110.54,0 -165.82,0.01 -4.21,0 -8.42,0.12 -12.62,0.03 -6.36,-0.14 -9.94,1.92 -10.1,9.22 -0.18,8.22 3.83,18.83 -2.31,24.11 -7.19,6.22 -18.42,2.26 -27.85,2.3 -52.27,0.26 -104.54,0.07 -156.82,0.16 -14.96,0.03 -15.12,0.25 -15.21,14.66 -0.15,21.04 -0.17,42.05 0.09,63.1 0.04,3.62 -2.4,8.68 3.57,10.54 0.01,-24.04 -0.13,-48.1 0.14,-72.15 0.14,-12.71 0.57,-12.81 13.35,-13.32 2.39,-0.1 4.81,-0.03 7.22,-0.03 1094.38,-0.15 2188.77,-0.29 3283.15,-0.39 63.14,0 126.28,0.29 189.4,0.35 7.21,0.02 14.41,-0.41 21.63,-0.66 -6.05,-3.99 -12.84,-2 -19.24,-2.03 -53.96,-0.18 -107.93,-0.06 -161.88,-0.14 -14.51,-0.04 -14.51,-0.26 -14.79,-14.82 -0.04,-2.41 0.05,-4.79 -0.02,-7.2 -0.37,-13.35 -0.37,-13.64 -14.42,-13.67 -46.76,-0.15 -93.51,-0.07 -140.28,-0.07 -62.35,0 -124.7,0.02 -187.05,-0.03 -7.15,0 -14.42,0.9 -21.39,-1.66 -27.9,7.52 -56.36,2.42 -84.53,3.61 -4.92,0.2 -6.38,-4.81 -9.81,-6.89 -1.02,3.31 -3.44,4.71 -6.72,4.79 -6.01,0.1 -12.01,0.17 -18,0.17 -714.46,0.01 -1428.91,0.02 -2143.34,-0.04 -8.37,0 -16.85,1.19 -25.06,-1.64"
         style="fill:#384b98;fill-opacity:1;fill-rule:evenodd;stroke:none"
         id="path274" />
    </g>
  </g>
</svg>
