<svg width="169.25" height="42.4" viewBox="0 0 169.25 42.4" xmlns="http://www.w3.org/2000/svg"><g id="svgGroup" stroke-linecap="round" fill-rule="evenodd" font-size="9pt" stroke="#e11d48" stroke-width="0.25mm" fill="#e11d48" style="stroke:#e11d48;stroke-width:0.25mm;fill:#e11d48"><path d="M 0 30.35 L 0 22.2 L 24.5 10.1 L 24.5 12.7 L 2.3 23.6 L 2.3 28.95 L 24.5 39.85 L 24.5 42.4 L 0 30.35 Z M 5.1 27.5 L 5.1 25.05 L 24.5 15.55 L 24.5 18.1 L 7.75 26.25 L 24.5 34.15 L 24.5 36.75 L 5.1 27.5 Z" id="0" vector-effect="non-scaling-stroke"/><path d="M 52.35 19.2 L 46.15 17.15 A 18.07 18.07 0 0 1 44.476 16.496 Q 42.745 15.71 41.814 14.739 A 4.844 4.844 0 0 1 41.6 14.5 A 5.848 5.848 0 0 1 40.69 13.047 A 4.771 4.771 0 0 1 40.3 11.15 Q 40.3 9.6 41.025 8.25 A 4.608 4.608 0 0 1 42.198 6.856 Q 42.712 6.437 43.382 6.097 A 8.187 8.187 0 0 1 43.475 6.05 Q 44.74 5.427 46.637 5.26 A 16.79 16.79 0 0 1 48.1 5.2 A 9.925 9.925 0 0 1 51.873 5.909 A 9.44 9.44 0 0 1 53.4 6.7 Q 55.75 8.2 57.15 11.15 L 55.15 12.6 Q 54.25 10.2 52.35 8.9 Q 50.45 7.6 48.1 7.6 Q 45.616 7.6 44.343 8.352 A 3.119 3.119 0 0 0 43.95 8.625 A 3.625 3.625 0 0 0 43.144 9.531 A 3.04 3.04 0 0 0 42.7 11.15 A 2.593 2.593 0 0 0 43.49 12.975 Q 44.316 13.842 46.008 14.523 A 15.562 15.562 0 0 0 46.9 14.85 L 53.1 16.9 A 19.863 19.863 0 0 1 56.644 18.427 A 14.466 14.466 0 0 1 60.175 21.15 A 9.446 9.446 0 0 1 60.216 21.194 Q 62.8 23.986 62.8 28.5 A 15.162 15.162 0 0 1 62.342 32.334 A 10.561 10.561 0 0 1 58.925 37.85 A 12.709 12.709 0 0 1 54.403 40.273 Q 52.511 40.862 50.226 41.056 A 27.59 27.59 0 0 1 47.9 41.15 A 22.401 22.401 0 0 1 43.486 40.738 Q 40.637 40.166 38.392 38.798 A 13.828 13.828 0 0 1 37.85 38.45 A 14.413 14.413 0 0 1 32.226 31.025 A 17.664 17.664 0 0 1 32.2 30.95 L 34 29.75 Q 36.2 34.7 39.7 36.75 A 14.833 14.833 0 0 0 45.08 38.6 A 19.238 19.238 0 0 0 47.9 38.8 Q 53.85 38.8 57.125 36.15 A 8.585 8.585 0 0 0 60.195 30.853 A 12.894 12.894 0 0 0 60.4 28.5 Q 60.4 24.8 58.175 22.6 A 13.102 13.102 0 0 0 55.096 20.365 A 17.817 17.817 0 0 0 52.35 19.2 Z M 48.55 24.6 L 42.9 22.6 A 23.153 23.153 0 0 1 39.982 21.334 Q 37.632 20.102 36.175 18.5 A 8.353 8.353 0 0 1 34.29 14.935 Q 33.9 13.451 33.9 11.65 Q 33.9 8.5 35.55 5.875 Q 37.2 3.25 40.3 1.675 A 13.926 13.926 0 0 1 43.947 0.446 Q 45.711 0.1 47.75 0.1 A 22.388 22.388 0 0 1 52.893 0.647 Q 59.29 2.159 61.75 7.85 L 59.85 9.2 A 15.36 15.36 0 0 0 58.372 6.787 Q 56.822 4.741 54.825 3.85 A 15.106 15.106 0 0 0 51.098 2.758 A 20.687 20.687 0 0 0 47.75 2.5 A 17.268 17.268 0 0 0 44.83 2.734 Q 43.156 3.022 41.761 3.661 A 10.718 10.718 0 0 0 41.625 3.725 A 10.701 10.701 0 0 0 39.365 5.15 A 8.641 8.641 0 0 0 37.675 7.025 Q 36.3 9.1 36.3 11.65 Q 36.3 15.15 38.2 17.1 Q 40.1 19.05 43.7 20.35 L 49.35 22.35 Q 52.685 23.535 54.133 25.047 A 4.972 4.972 0 0 1 54.5 25.475 Q 55.85 27.25 55.85 29.5 A 6.463 6.463 0 0 1 55.402 31.94 A 5.978 5.978 0 0 1 54 34 Q 52.222 35.73 48.179 35.797 A 19.874 19.874 0 0 1 47.85 35.8 A 10.23 10.23 0 0 1 42.896 34.496 A 12.955 12.955 0 0 1 41.8 33.825 A 11.926 11.926 0 0 1 39.075 31.21 Q 38.137 29.991 37.353 28.436 A 21.919 21.919 0 0 1 37 27.7 L 39.05 26.3 Q 40.35 29.65 42.8 31.525 A 9.939 9.939 0 0 0 44.874 32.765 A 7.405 7.405 0 0 0 47.85 33.4 Q 50.518 33.4 51.874 32.511 A 3.431 3.431 0 0 0 52.1 32.35 A 3.359 3.359 0 0 0 53.433 29.898 A 4.482 4.482 0 0 0 53.45 29.5 Q 53.45 27.9 52.35 26.725 A 5.263 5.263 0 0 0 51.456 25.978 Q 50.518 25.342 49.046 24.782 A 20.517 20.517 0 0 0 48.55 24.6 Z" id="1" vector-effect="non-scaling-stroke"/><path d="M 88.15 19.2 L 81.95 17.15 A 18.07 18.07 0 0 1 80.276 16.496 Q 78.545 15.71 77.614 14.739 A 4.844 4.844 0 0 1 77.4 14.5 A 5.848 5.848 0 0 1 76.49 13.047 A 4.771 4.771 0 0 1 76.1 11.15 Q 76.1 9.6 76.825 8.25 A 4.608 4.608 0 0 1 77.998 6.856 Q 78.512 6.437 79.182 6.097 A 8.187 8.187 0 0 1 79.275 6.05 Q 80.54 5.427 82.437 5.26 A 16.79 16.79 0 0 1 83.9 5.2 A 9.925 9.925 0 0 1 87.673 5.909 A 9.44 9.44 0 0 1 89.2 6.7 Q 91.55 8.2 92.95 11.15 L 90.95 12.6 Q 90.05 10.2 88.15 8.9 Q 86.25 7.6 83.9 7.6 Q 81.416 7.6 80.143 8.352 A 3.119 3.119 0 0 0 79.75 8.625 A 3.625 3.625 0 0 0 78.944 9.531 A 3.04 3.04 0 0 0 78.5 11.15 A 2.593 2.593 0 0 0 79.29 12.975 Q 80.116 13.842 81.808 14.523 A 15.562 15.562 0 0 0 82.7 14.85 L 88.9 16.9 A 19.863 19.863 0 0 1 92.444 18.427 A 14.466 14.466 0 0 1 95.975 21.15 A 9.446 9.446 0 0 1 96.016 21.194 Q 98.6 23.986 98.6 28.5 A 15.162 15.162 0 0 1 98.142 32.334 A 10.561 10.561 0 0 1 94.725 37.85 A 12.709 12.709 0 0 1 90.203 40.273 Q 88.311 40.862 86.026 41.056 A 27.59 27.59 0 0 1 83.7 41.15 A 22.401 22.401 0 0 1 79.286 40.738 Q 76.437 40.166 74.192 38.798 A 13.828 13.828 0 0 1 73.65 38.45 A 14.413 14.413 0 0 1 68.026 31.025 A 17.664 17.664 0 0 1 68 30.95 L 69.8 29.75 Q 72 34.7 75.5 36.75 A 14.833 14.833 0 0 0 80.88 38.6 A 19.238 19.238 0 0 0 83.7 38.8 Q 89.65 38.8 92.925 36.15 A 8.585 8.585 0 0 0 95.995 30.853 A 12.894 12.894 0 0 0 96.2 28.5 Q 96.2 24.8 93.975 22.6 A 13.102 13.102 0 0 0 90.896 20.365 A 17.817 17.817 0 0 0 88.15 19.2 Z M 84.35 24.6 L 78.7 22.6 A 23.153 23.153 0 0 1 75.782 21.334 Q 73.432 20.102 71.975 18.5 A 8.353 8.353 0 0 1 70.09 14.935 Q 69.7 13.451 69.7 11.65 Q 69.7 8.5 71.35 5.875 Q 73 3.25 76.1 1.675 A 13.926 13.926 0 0 1 79.747 0.446 Q 81.511 0.1 83.55 0.1 A 22.388 22.388 0 0 1 88.693 0.647 Q 95.09 2.159 97.55 7.85 L 95.65 9.2 A 15.36 15.36 0 0 0 94.172 6.787 Q 92.622 4.741 90.625 3.85 A 15.106 15.106 0 0 0 86.898 2.758 A 20.687 20.687 0 0 0 83.55 2.5 A 17.268 17.268 0 0 0 80.63 2.734 Q 78.956 3.022 77.561 3.661 A 10.718 10.718 0 0 0 77.425 3.725 A 10.701 10.701 0 0 0 75.165 5.15 A 8.641 8.641 0 0 0 73.475 7.025 Q 72.1 9.1 72.1 11.65 Q 72.1 15.15 74 17.1 Q 75.9 19.05 79.5 20.35 L 85.15 22.35 Q 88.485 23.535 89.933 25.047 A 4.972 4.972 0 0 1 90.3 25.475 Q 91.65 27.25 91.65 29.5 A 6.463 6.463 0 0 1 91.202 31.94 A 5.978 5.978 0 0 1 89.8 34 Q 88.022 35.73 83.979 35.797 A 19.874 19.874 0 0 1 83.65 35.8 A 10.23 10.23 0 0 1 78.696 34.496 A 12.955 12.955 0 0 1 77.6 33.825 A 11.926 11.926 0 0 1 74.875 31.21 Q 73.937 29.991 73.153 28.436 A 21.919 21.919 0 0 1 72.8 27.7 L 74.85 26.3 Q 76.15 29.65 78.6 31.525 A 9.939 9.939 0 0 0 80.674 32.765 A 7.405 7.405 0 0 0 83.65 33.4 Q 86.318 33.4 87.674 32.511 A 3.431 3.431 0 0 0 87.9 32.35 A 3.359 3.359 0 0 0 89.233 29.898 A 4.482 4.482 0 0 0 89.25 29.5 Q 89.25 27.9 88.15 26.725 A 5.263 5.263 0 0 0 87.256 25.978 Q 86.318 25.342 84.846 24.782 A 20.517 20.517 0 0 0 84.35 24.6 Z" id="2" vector-effect="non-scaling-stroke"/><path d="M 123.2 41.25 L 137.05 0 L 139.5 0 L 125.65 41.25 L 123.2 41.25 Z M 118.55 41.25 L 132.35 0 L 134.8 0 L 120.95 41.25 L 118.55 41.25 Z" id="4" vector-effect="non-scaling-stroke"/><path d="M 144.75 42.35 L 144.75 39.85 L 166.95 28.95 L 166.95 23.6 L 144.75 12.7 L 144.75 10.1 L 169.25 22.2 L 169.25 30.35 L 144.75 42.35 Z M 144.75 36.75 L 144.75 34.15 L 161.5 26.25 L 144.75 18.1 L 144.75 15.55 L 164.15 25.05 L 164.15 27.5 L 144.75 36.75 Z" id="5" vector-effect="non-scaling-stroke"/></g></svg>