<svg version="1.1" id="Layer_1" xmlns="http://www.w3.org/2000/svg" xmlns:xlink="http://www.w3.org/1999/xlink" width="100%" viewBox="0 0 496 496">
	<path fill="#1e3a8a" opacity="1.000000" stroke="none" d="
M255.584076,209.425690 
	C258.435455,212.718491 262.064423,214.018463 265.592377,215.520782 
	C274.623505,219.366501 283.849182,222.744812 292.177551,228.145172 
	C312.005951,241.002426 306.765686,264.737640 294.808655,274.830627 
	C284.924072,283.174255 273.417633,286.145752 260.847137,285.165588 
	C250.154114,284.331818 239.904083,281.624908 230.330078,276.509552 
	C226.568863,274.499939 224.154068,272.088776 224.762009,267.567993 
	C225.327225,263.364899 223.295212,262.360779 219.328445,262.107849 
	C208.258728,261.401917 197.721405,258.519592 187.895645,253.153381 
	C184.622635,251.365845 182.891907,249.116394 182.966690,245.280487 
	C183.060822,240.452774 182.748611,235.618439 182.726715,230.786438 
	C182.719604,229.219559 182.197189,227.375854 184.132584,226.285294 
	C186.663376,226.670227 186.709808,229.032501 187.511795,230.712204 
	C193.509644,243.274414 202.087555,252.949860 216.105453,256.686310 
	C223.523788,258.663666 223.807373,258.503479 224.734772,251.109619 
	C224.809097,250.517090 225.184952,249.962387 225.501938,249.192810 
	C228.368301,249.769287 228.707687,252.197632 229.457428,254.016571 
	C230.745956,257.142609 232.629959,257.644592 235.753036,256.711884 
	C247.606567,253.171844 254.467575,240.961639 250.405563,230.184189 
	C249.643448,228.162094 248.776611,226.099930 246.862671,224.851776 
	C235.361954,217.351761 224.777756,208.323990 211.201340,204.328827 
	C206.097549,202.826920 201.472305,200.010925 197.091736,196.915451 
	C179.843063,184.726944 180.916901,159.276062 199.112091,148.242157 
	C210.564468,141.297211 223.116180,140.883057 235.868652,142.108292 
	C242.337891,142.729828 248.580261,144.540497 254.641098,147.015335 
	C257.985596,148.380981 259.520020,150.238083 259.422485,154.079147 
	C259.092194,167.087784 260.241547,164.556763 269.942017,164.590652 
	C279.603455,164.624405 288.694427,166.938843 297.555237,170.567017 
	C300.205353,171.652145 301.452148,173.291824 301.372345,176.240967 
	C301.223663,181.735550 301.329651,187.237030 301.329651,192.826309 
	C298.151642,192.494247 297.789642,190.641647 297.067322,189.246979 
	C290.741913,177.033981 280.560455,170.445160 267.122803,168.500259 
	C254.361069,166.653183 242.597336,173.105820 239.144394,183.900528 
	C236.488541,192.203339 238.941620,198.454742 246.499924,202.675903 
	C249.714798,204.471375 252.699371,206.583054 255.584076,209.425690 
M275.935120,237.572754 
	C272.049469,235.862762 268.493286,233.302429 263.638916,232.643280 
	C260.386993,248.783356 249.210007,257.066254 234.284729,261.567810 
	C234.906464,262.944977 235.139908,263.734711 235.576523,264.388824 
	C243.650894,276.485168 260.744598,283.388824 274.991119,280.334930 
	C291.084290,276.885162 298.540802,260.192657 289.310089,248.151825 
	C285.920471,243.730270 281.469086,240.533798 275.935120,237.572754 
M228.355484,146.155121 
	C221.466736,144.411591 214.826935,145.225327 208.432968,148.193756 
	C194.233994,154.785721 192.193085,172.482788 204.510208,182.141235 
	C209.794174,186.284653 215.773956,189.139847 221.924896,191.757614 
	C225.235138,193.166412 226.748123,192.449249 227.614166,188.990723 
	C230.156845,178.836716 236.827408,172.392502 246.299820,168.394180 
	C248.831161,167.325684 251.874619,167.297729 254.257599,164.727371 
	C248.733002,154.663895 240.467514,148.486420 228.355484,146.155121 
z" />
	<path fill="#1e3a8a" opacity="1.000000" stroke="none" d="
M188.285767,328.962860 
	C200.385986,328.796997 205.675156,317.218597 215.513351,313.717102 
	C218.145859,312.780182 220.438843,310.887695 223.350494,310.634125 
	C226.442856,310.364838 227.919296,311.424469 226.289505,315.091736 
	C228.681458,313.801605 230.747162,312.617188 232.878433,311.565735 
	C234.053375,310.986115 235.432541,310.292267 236.550003,311.562256 
	C237.778915,312.958893 237.062958,314.382446 236.161743,315.646484 
	C232.456635,320.843262 227.125626,323.831329 221.536682,326.541351 
	C218.345978,328.088470 214.260208,328.155273 212.264282,331.845734 
	C217.299377,333.665924 217.310242,333.722229 213.797562,341.008423 
	C218.767395,340.553223 222.490601,337.819031 225.444199,334.762695 
	C229.729111,330.328705 234.435867,329.114532 240.419937,330.359314 
	C240.020569,334.677521 234.180496,335.278503 233.872650,340.052612 
	C238.740967,339.321991 241.732147,335.094299 246.319427,333.958862 
	C244.915131,337.065826 243.849960,338.025757 238.967590,340.553345 
	C235.939041,342.121216 233.326035,343.536682 230.249725,339.754120 
	C229.111115,338.354095 225.130219,338.195282 222.413574,339.822723 
	C220.286346,341.097046 218.010406,342.171265 215.698181,343.071472 
	C214.192215,343.657837 212.381409,344.255798 210.992767,342.827362 
	C209.534286,341.327057 210.599106,339.720337 211.182755,338.191986 
	C211.416641,337.579529 211.676025,336.976837 211.933548,336.345825 
	C210.648987,335.155609 209.496155,336.139191 208.837494,336.729980 
	C204.611893,340.520081 199.011215,340.790985 194.060623,342.692383 
	C193.025864,343.089783 190.961716,343.405731 190.789932,343.058258 
	C188.529221,338.485046 183.352859,342.184174 180.580399,339.332672 
	C180.395233,339.142212 179.840164,339.027283 179.659805,339.157623 
	C174.505814,342.882446 167.358261,342.469208 162.731430,347.161346 
	C158.837677,351.109985 154.572632,354.548218 149.727478,357.185638 
	C147.321411,358.495392 144.106689,360.393799 142.176300,357.224426 
	C140.361069,354.244110 143.143814,351.947144 145.377640,350.213654 
	C149.662689,346.888306 154.954865,345.647217 159.856720,343.600586 
	C160.590134,343.294403 161.275650,342.873505 161.908920,342.154846 
	C157.199142,342.860291 152.319717,339.632751 147.816895,343.069794 
	C143.185364,339.142731 138.679749,342.828552 134.100845,343.226776 
	C131.506119,343.452484 130.460434,341.950012 131.216125,339.391815 
	C131.528900,338.333008 131.908157,337.293854 132.342804,335.988678 
	C127.637222,335.894653 125.692291,340.847321 121.500809,340.969971 
	C121.688591,336.606140 128.043137,329.810577 133.075012,328.422913 
	C134.162354,332.264557 139.766647,335.206940 134.309128,340.468872 
	C142.986786,339.760101 146.737198,332.065735 154.011948,329.544281 
	C153.670395,334.959045 147.731293,335.722931 147.195099,340.451935 
	C153.662659,339.250580 158.078018,335.058441 162.774994,331.541687 
	C167.719376,327.839752 174.122559,332.166382 178.967239,327.779266 
	C177.255600,332.966888 172.704102,335.583832 170.066574,340.282104 
	C177.846680,338.954437 182.547745,333.466736 188.285767,328.962860 
M193.254974,335.682983 
	C192.380157,337.157898 190.719955,338.346710 191.583984,340.932709 
	C201.585724,339.117462 206.725128,330.933716 213.556732,325.117035 
	C206.220169,327.168549 198.283890,327.978882 193.254974,335.682983 
M209.255188,321.564331 
	C208.409882,322.520691 206.828949,322.726898 206.315018,324.930023 
	C212.289505,323.135468 217.268982,320.732117 220.834259,315.954529 
	C216.515915,316.458160 213.128723,318.757416 209.255188,321.564331 
M145.451660,353.529144 
	C145.057007,354.212524 144.406097,354.826721 145.089767,356.239105 
	C149.837616,354.814148 153.202133,351.539154 157.121964,347.400269 
	C152.368301,348.682800 148.889130,350.390717 145.451660,353.529144 
M161.795746,338.295959 
	C164.021835,336.288116 167.864166,336.320374 169.462860,332.214600 
	C165.221283,333.539612 162.669128,335.952972 160.175476,338.454651 
	C160.414673,338.547913 160.647675,338.679596 160.895462,338.719421 
	C161.033722,338.741699 161.196533,338.611481 161.795746,338.295959 
M225.570114,321.715820 
	C227.552628,320.462311 229.706421,319.389618 230.277466,316.586670 
	C227.699921,318.632660 225.122391,320.678650 222.544861,322.724640 
	C222.678925,322.899139 222.812988,323.073608 222.947052,323.248108 
	C223.649597,322.843628 224.352127,322.439117 225.570114,321.715820 
z" />
	<path fill="#1e3a8a" opacity="1.000000" stroke="none" d="
M64.117905,312.105164 
	C74.181732,303.458435 85.486855,301.274323 97.851746,304.073334 
	C102.324516,305.085815 105.700615,307.858917 107.078140,312.359955 
	C107.874069,314.960663 109.033760,315.780151 111.760117,315.261841 
	C115.655930,314.521240 119.628227,313.991455 123.587059,313.822998 
	C128.357910,313.620056 132.707092,312.426056 136.845581,310.066101 
	C138.610886,309.059418 140.613083,307.924866 142.718994,309.224915 
	C142.753830,309.862488 142.896667,310.405090 142.771301,310.476440 
	C131.418320,316.937317 123.834061,327.534180 114.499352,336.204468 
	C107.351555,342.843506 99.708015,348.735504 89.801636,350.463715 
	C77.332886,352.638977 65.447617,352.540314 57.758739,340.004211 
	C54.105331,340.303162 54.705444,345.041626 51.674473,345.801697 
	C51.428173,345.493011 51.208504,345.287445 51.237049,345.243622 
	C56.048512,337.859955 55.888168,329.094910 58.071911,320.981018 
	C58.988480,317.575409 61.397640,314.877747 64.117905,312.105164 
M77.454926,348.687286 
	C82.083649,348.523041 86.710411,348.737030 91.205696,347.026154 
	C106.841156,341.075378 116.053413,327.832123 126.908524,316.357056 
	C122.194336,316.612732 117.734444,316.454315 113.274551,317.057770 
	C109.749565,317.534698 108.717468,318.886444 108.000710,322.163361 
	C105.939072,331.588806 95.940132,340.198730 86.487099,341.281677 
	C82.153084,341.778198 80.699501,341.218231 78.707695,338.119446 
	C89.644730,340.949188 96.633911,335.657776 101.908020,327.068359 
	C103.342278,324.732544 105.779022,321.904694 103.980270,319.369476 
	C102.252655,316.934479 99.069221,318.893372 96.525108,319.285370 
	C96.034180,319.360992 95.521187,319.300201 95.032921,319.385498 
	C83.604103,321.382629 72.873787,325.076263 63.302513,331.881195 
	C59.504734,334.581360 59.039482,337.415344 61.624386,341.101746 
	C65.282104,346.318146 70.497635,348.351929 77.454926,348.687286 
M59.762470,323.333496 
	C58.796329,326.057098 57.444122,328.756897 59.185287,332.053009 
	C63.637356,328.689148 67.973068,325.661163 72.886208,323.562775 
	C81.483627,319.890778 90.441223,317.681000 99.709442,316.630890 
	C104.334465,316.106842 105.152458,314.344238 102.624390,310.412109 
	C100.888824,307.712616 98.125053,306.201019 95.242081,305.712280 
	C82.766449,303.597260 66.264091,307.359009 59.762470,323.333496 
z" />
	<path fill="#1e3a8a" opacity="1.000000" stroke="none" d="
M319.096283,310.104858 
	C320.097870,314.575897 321.984894,315.689331 326.608002,315.050476 
	C335.161469,313.868622 343.813324,313.682495 351.667694,309.438873 
	C352.895935,308.775269 354.454529,308.161560 355.967255,310.146576 
	C352.881012,313.332581 348.454346,314.719696 345.412231,317.971802 
	C339.725891,324.050659 333.872925,329.987030 327.862549,335.746063 
	C320.188690,343.099030 311.660309,349.129761 300.829193,350.868866 
	C294.693878,351.854004 288.597595,351.728516 282.576172,349.841278 
	C277.196289,348.155151 273.356262,344.704010 270.785065,339.661194 
	C267.475830,340.740265 267.580780,344.595947 264.559570,345.973358 
	C263.708130,342.508789 266.052338,340.536072 267.402222,338.373413 
	C268.964478,335.870483 269.654175,333.487427 269.455414,330.430298 
	C268.623901,317.639404 279.822479,305.746796 294.258209,303.722839 
	C299.014771,303.055939 303.698395,302.396545 308.565643,303.544006 
	C312.805542,304.543488 316.457550,306.050842 319.096283,310.104858 
M280.320862,346.324646 
	C289.245819,350.081421 298.222046,349.913269 306.914154,345.911957 
	C320.797516,339.520935 329.933685,327.623383 339.841705,316.670319 
	C339.938995,316.562775 339.679749,316.132782 339.529053,315.679047 
	C334.792755,316.212311 330.043549,316.867340 325.272217,317.236572 
	C322.648926,317.439575 321.661285,318.567108 321.122620,321.141724 
	C318.861877,331.947449 311.299713,337.738617 301.358734,340.850739 
	C297.901062,341.933197 294.260590,342.004486 291.268250,338.506989 
	C292.074982,338.302734 292.543182,338.029724 292.946991,338.104492 
	C303.408356,340.041809 314.446350,332.869934 317.185455,322.492523 
	C318.043640,319.241302 316.905792,317.973328 313.804199,318.411865 
	C300.866364,320.241058 288.361481,323.419342 277.496948,331.123657 
	C271.607452,335.300049 271.420563,338.469879 276.513580,343.536804 
	C277.445007,344.463470 278.621887,345.143402 280.320862,346.324646 
M286.878387,308.310181 
	C276.332458,313.728821 270.245087,323.265015 272.082855,331.841980 
	C274.469940,330.254700 276.734436,328.638062 279.103485,327.192841 
	C289.378326,320.924622 300.758575,318.116028 312.555389,316.681213 
	C314.218018,316.478973 316.129150,316.607971 316.837646,314.799988 
	C317.576569,312.914307 316.517975,311.185608 315.275421,309.824646 
	C312.834106,307.150696 309.728943,305.634064 306.105743,305.325500 
	C299.727295,304.782318 293.506653,305.418213 286.878387,308.310181 
z" />
	<path fill="#1e3a8a" opacity="1.000000" stroke="none" d="
M404.853760,337.951355 
	C400.937042,342.162109 395.686798,340.917664 391.221649,342.175323 
	C388.316010,342.993744 387.432983,338.802521 383.676544,338.876862 
	C379.665497,338.956207 376.818115,340.168457 373.685669,341.941742 
	C367.140503,345.646881 364.167084,345.182129 358.811951,339.445618 
	C355.906799,342.670227 352.262268,343.896545 347.936188,342.345795 
	C346.874451,341.965240 345.359680,342.255676 344.999756,340.935455 
	C344.295105,338.350891 342.662323,338.652252 340.734894,339.124146 
	C339.388824,339.453735 338.044159,339.348022 337.273346,337.901550 
	C336.620178,336.675934 337.208710,335.552582 337.876343,334.646057 
	C339.851135,331.964722 342.130066,329.609924 345.748199,328.556000 
	C347.233032,332.280914 343.284821,332.856384 342.219543,335.549835 
	C348.166595,335.597168 350.741333,329.581299 355.897583,328.319946 
	C357.339050,332.251373 353.760590,332.787476 352.207062,334.455719 
	C350.550537,336.234589 348.652588,337.788605 347.195404,339.815430 
	C354.241028,338.638336 358.849213,333.757141 363.904572,329.586731 
	C370.066223,324.503662 376.176605,319.355743 382.431244,314.389587 
	C384.363983,312.854980 386.658722,311.752991 388.859589,310.588776 
	C390.007294,309.981689 391.413147,309.279327 392.555115,310.464935 
	C393.827576,311.785980 393.201447,313.245544 392.341492,314.558472 
	C389.302460,319.198364 384.577362,321.689728 379.971283,324.388184 
	C376.269653,326.556793 371.699768,327.027496 368.509644,330.170624 
	C368.741394,332.402954 372.031006,331.761353 371.775238,334.808929 
	C370.042419,338.502380 365.654938,336.658234 362.134216,337.828430 
	C362.807922,341.890198 364.834473,343.452850 368.614197,341.775116 
	C373.804016,339.471497 378.655792,336.579620 382.888092,332.722351 
	C384.792297,330.986877 386.660400,329.082581 389.602661,329.036133 
	C390.600586,332.461243 386.579956,332.838257 386.199982,335.539764 
	C391.817596,335.193207 394.532654,329.549469 400.461304,328.254761 
	C399.230774,334.060852 393.161835,334.902283 391.719727,339.546967 
	C399.783539,338.665802 403.953217,331.202881 410.323853,328.112000 
	C412.335754,329.978638 410.443237,330.945831 410.377014,332.365906 
	C418.368591,332.470612 413.545410,336.966583 412.645416,340.453644 
	C418.419464,340.411896 421.475555,335.162811 426.568359,334.573669 
	C422.610992,338.784607 418.101959,342.178375 412.273254,343.174622 
	C409.476257,343.652649 408.281708,342.011322 409.063171,339.182831 
	C409.358673,338.113220 410.461578,337.259918 409.903076,335.857178 
	C407.826355,335.191833 406.655518,336.932648 404.853760,337.951355 
z" />
	<path fill="#e11d48" opacity="1.000000" stroke="none" d="
M319.752228,289.459503 
	C317.609589,295.924408 312.825531,298.712769 307.121521,297.143188 
	C303.845490,296.241730 300.201172,290.356812 300.708282,286.786865 
	C301.524353,281.041443 305.966003,277.197571 311.173981,277.729614 
	C316.168091,278.239868 320.000885,283.244995 319.752228,289.459503 
z" />
</svg>